<svg xmlns="http://www.w3.org/2000/svg" xmlns:xlink="http://www.w3.org/1999/xlink" width="2000" zoomAndPan="magnify" viewBox="0 0 1500 1049.999947" height="1400" preserveAspectRatio="xMidYMid meet" version="1.0"><path fill="#1b4a42" d="M 1495.144531 25.550781 L 1495.144531 489.394531 L 1367.449219 391.972656 L 1045.507812 489.394531 L 875.882812 400.699219 L 621.109375 489.394531 L 252.242188 381.796875 L 3.964844 489.394531 L 3.964844 25.550781 L 1495.148438 25.550781 Z M 1495.144531 25.550781 " fill-opacity="1" fill-rule="evenodd"/><path fill="#00e8c4" d="M 1497.519531 1014.019531 L 1497.519531 550.175781 L 1368.015625 439.230469 L 1047.882812 550.175781 L 875.503906 450.144531 L 623.480469 550.175781 L 261.859375 436.726562 L 6.335938 550.175781 L 6.335938 1014.019531 Z M 1497.519531 1014.019531 " fill-opacity="1" fill-rule="evenodd"/><path fill="#faf9f6" d="M 71.140625 295.292969 L 106.488281 196.59375 L 110.429688 199.585938 C 107.53125 199.496094 104.203125 200.21875 100.4375 201.761719 C 96.675781 203.300781 92.800781 205.5 88.816406 208.355469 C 84.828125 211.207031 81.019531 214.675781 77.398438 218.753906 L 73.320312 214.8125 C 79.574219 205.929688 85.304688 199.089844 90.515625 194.285156 C 95.726562 189.480469 100.597656 186.152344 105.128906 184.292969 C 109.65625 182.433594 113.960938 181.503906 118.042969 181.503906 C 121.484375 181.503906 124.042969 182.164062 125.722656 183.476562 C 127.398438 184.792969 127.828125 186.628906 127.011719 188.984375 L 91.667969 290.398438 L 89.355469 285.230469 C 92.347656 285.59375 95.765625 285.1875 99.621094 284.007812 C 103.472656 282.828125 107.503906 280.972656 111.71875 278.433594 C 115.933594 275.894531 120.035156 272.816406 124.023438 269.1875 L 127.828125 273.535156 C 121.484375 280.96875 115.640625 286.8125 110.289062 291.074219 C 104.941406 295.332031 100.027344 298.347656 95.542969 300.113281 C 91.054688 301.878906 86.773438 302.765625 82.695312 302.765625 C 77.710938 302.765625 74.3125 302.132812 72.496094 300.863281 C 70.683594 299.59375 70.234375 297.734375 71.140625 295.289062 Z M 116.550781 123.324219 C 116.550781 120.421875 117.207031 117.816406 118.519531 115.503906 C 119.835938 113.195312 121.648438 111.359375 123.957031 110 C 126.269531 108.640625 128.964844 107.957031 132.046875 107.957031 C 136.667969 107.957031 140.40625 109.433594 143.261719 112.378906 C 146.113281 115.324219 147.542969 118.96875 147.542969 123.324219 C 147.542969 126.222656 146.882812 128.828125 145.570312 131.140625 C 144.257812 133.449219 142.441406 135.285156 140.132812 136.644531 C 137.824219 138.003906 135.125 138.6875 132.046875 138.6875 C 127.421875 138.6875 123.683594 137.210938 120.832031 134.265625 C 117.976562 131.320312 116.550781 127.675781 116.550781 123.324219 Z M 116.550781 123.324219 " fill-opacity="1" fill-rule="nonzero"/><path fill="#faf9f6" d="M 147.542969 220.929688 L 142.648438 218.890625 C 146.367188 209.285156 150.421875 201.785156 154.816406 196.390625 C 159.210938 191 163.859375 187.195312 168.75 184.972656 C 173.644531 182.753906 178.539062 181.640625 183.433594 181.640625 C 185.15625 181.640625 186.855469 181.757812 188.53125 181.984375 C 190.207031 182.207031 191.882812 182.503906 193.558594 182.867188 C 195.238281 183.230469 196.890625 183.683594 198.523438 184.226562 L 182.207031 237.246094 L 181.394531 237.246094 C 185.378906 230.175781 189.664062 223.332031 194.242188 216.71875 C 198.820312 210.101562 203.640625 204.191406 208.71875 198.976562 C 213.792969 193.765625 219.050781 189.621094 224.492188 186.539062 C 229.929688 183.457031 235.457031 181.914062 241.074219 181.914062 C 248.597656 181.914062 253.785156 183.527344 256.644531 186.742188 C 259.496094 189.957031 260.925781 194.152344 260.925781 199.320312 C 260.925781 202.21875 260.472656 205.4375 259.566406 208.972656 C 258.660156 212.507812 257.4375 216.3125 255.894531 220.390625 L 228.976562 290.402344 L 229.246094 285.371094 C 232.238281 285.371094 235.546875 284.738281 239.171875 283.46875 C 242.792969 282.199219 246.558594 280.34375 250.453125 277.894531 C 254.351562 275.449219 258.113281 272.546875 261.738281 269.195312 L 265.820312 273.410156 C 259.472656 280.839844 253.605469 286.707031 248.210938 291.015625 C 242.820312 295.320312 237.855469 298.355469 233.324219 300.125 C 228.796875 301.890625 224.492188 302.773438 220.414062 302.773438 C 214.519531 302.773438 210.941406 301.933594 209.671875 300.257812 C 208.402344 298.582031 208.765625 295.207031 210.757812 290.132812 L 239.445312 216.039062 C 240.167969 214.136719 240.78125 212.28125 241.28125 210.464844 C 241.777344 208.652344 242.027344 206.976562 242.027344 205.4375 C 242.027344 203.171875 241.300781 201.359375 239.851562 200 C 238.398438 198.640625 235.773438 197.960938 231.96875 197.960938 C 227.617188 197.960938 222.769531 199.816406 217.421875 203.535156 C 212.074219 207.25 206.703125 212.371094 201.3125 218.894531 C 195.921875 225.417969 190.9375 232.917969 186.359375 241.394531 C 181.78125 249.867188 178.042969 258.863281 175.144531 268.378906 L 165.492188 300.054688 L 147.140625 300.054688 L 177.863281 198.640625 L 175.824219 198.640625 C 172.558594 198.640625 169.386719 199.273438 166.308594 200.542969 C 163.226562 201.8125 160.144531 204.054688 157.0625 207.273438 C 153.980469 210.488281 150.808594 215.046875 147.546875 220.933594 Z M 147.542969 220.929688 " fill-opacity="1" fill-rule="nonzero"/><path fill="#faf9f6" d="M 289.605469 195.101562 L 292.054688 184.226562 L 358.667969 184.226562 L 356.492188 195.101562 Z M 308.230469 271.363281 C 307.867188 272.722656 307.550781 273.96875 307.28125 275.101562 C 307.007812 276.234375 306.800781 277.257812 306.667969 278.160156 C 306.53125 279.066406 306.464844 279.878906 306.464844 280.605469 C 306.464844 282.058594 306.734375 283.144531 307.28125 283.871094 C 307.824219 284.597656 308.550781 284.957031 309.457031 284.957031 C 311.359375 284.957031 313.988281 283.824219 317.339844 281.5625 C 320.691406 279.296875 324.410156 276.144531 328.488281 272.113281 C 332.566406 268.078125 336.644531 263.34375 340.722656 257.90625 L 346.160156 261.441406 C 342.261719 267.515625 338.34375 273.039062 334.402344 278.027344 C 330.460938 283.011719 326.585938 287.339844 322.78125 291.007812 C 318.976562 294.679688 315.28125 297.511719 311.703125 299.507812 C 308.121094 301.503906 304.65625 302.5 301.300781 302.5 C 297.40625 302.5 294.277344 301.367188 291.921875 299.101562 C 289.566406 296.835938 288.386719 292.9375 288.386719 287.410156 C 288.386719 284.960938 288.636719 282.128906 289.136719 278.910156 C 289.636719 275.695312 290.472656 272.042969 291.652344 267.964844 L 321.5625 160.566406 L 339.914062 160.566406 L 308.242188 271.363281 Z M 308.230469 271.363281 " fill-opacity="1" fill-rule="nonzero"/><path fill="#faf9f6" d="M 421.472656 190.613281 C 416.125 190.613281 411.324219 192.203125 407.0625 195.375 C 402.804688 198.546875 399.066406 202.761719 395.851562 208.015625 C 392.632812 213.273438 389.957031 219.050781 387.828125 225.351562 C 385.699219 231.648438 384.089844 237.972656 383.003906 244.316406 C 381.914062 250.660156 381.371094 256.457031 381.371094 261.714844 C 381.371094 271.050781 383.230469 277.667969 386.945312 281.5625 C 390.660156 285.460938 395.507812 287.40625 401.492188 287.40625 C 405.570312 287.40625 409.394531 286.683594 412.980469 285.230469 C 416.558594 283.78125 420.003906 281.269531 423.308594 277.683594 C 426.617188 274.105469 429.855469 269.054688 433.027344 262.527344 L 440.640625 262.527344 C 436.199219 272.859375 431.78125 280.949219 427.386719 286.792969 C 422.992188 292.636719 418.234375 296.765625 413.113281 299.164062 C 407.992188 301.566406 402.035156 302.765625 395.234375 302.765625 C 388.441406 302.765625 382.527344 301.429688 377.496094 298.753906 C 372.464844 296.082031 368.566406 292.113281 365.804688 286.859375 C 363.039062 281.601562 361.65625 275.121094 361.65625 267.417969 C 361.65625 257.902344 362.769531 248.839844 364.988281 240.230469 C 367.210938 231.621094 370.335938 223.757812 374.367188 216.640625 C 378.402344 209.527344 383.070312 203.34375 388.371094 198.085938 C 393.671875 192.828125 399.449219 188.75 405.703125 185.847656 C 411.957031 182.945312 418.390625 181.5 425.007812 181.5 C 431.351562 181.5 436.519531 182.609375 440.503906 184.832031 C 444.492188 187.050781 447.414062 189.949219 449.273438 193.53125 C 451.132812 197.109375 452.058594 200.941406 452.058594 205.019531 C 452.058594 208.917969 451.21875 212.792969 449.542969 216.640625 C 447.867188 220.496094 445.714844 223.507812 443.085938 225.683594 C 437.828125 227.859375 432.574219 229.988281 427.316406 232.070312 C 422.058594 234.15625 416.777344 236.171875 411.476562 238.121094 C 406.175781 240.066406 400.875 241.972656 395.574219 243.832031 C 390.273438 245.6875 384.945312 247.480469 379.597656 249.203125 L 380.003906 239.410156 C 388.707031 236.964844 396.183594 234.519531 402.433594 232.070312 C 408.691406 229.625 413.875 227.222656 418.003906 224.867188 C 422.125 222.507812 425.367188 220.132812 427.722656 217.730469 C 430.078125 215.328125 431.757812 212.925781 432.75 210.523438 C 433.746094 208.121094 434.246094 205.699219 434.246094 203.25 C 434.246094 200.710938 433.746094 198.515625 432.75 196.660156 C 431.757812 194.800781 430.328125 193.328125 428.46875 192.238281 C 426.613281 191.152344 424.277344 190.609375 421.46875 190.609375 Z M 421.472656 190.613281 " fill-opacity="1" fill-rule="nonzero"/><path fill="#faf9f6" d="M 497.601562 198.636719 L 495.5625 198.636719 C 492.296875 198.636719 489.125 199.269531 486.046875 200.539062 C 482.960938 201.808594 479.882812 204.050781 476.800781 207.265625 C 473.714844 210.484375 470.542969 215.039062 467.285156 220.925781 L 462.390625 218.886719 C 466.105469 209.28125 470.164062 201.78125 474.558594 196.390625 C 478.953125 190.996094 483.597656 187.191406 488.492188 184.96875 C 493.386719 182.75 498.28125 181.640625 503.175781 181.640625 C 504.894531 181.640625 506.59375 181.753906 508.269531 181.980469 C 509.949219 182.207031 511.625 182.5 513.300781 182.863281 C 514.976562 183.226562 516.632812 183.679688 518.265625 184.222656 L 504.261719 229.761719 L 503.582031 229.761719 C 509.199219 218.707031 514.636719 209.621094 519.894531 202.507812 C 525.152344 195.394531 530.40625 190.113281 535.667969 186.667969 C 540.921875 183.226562 546.269531 181.503906 551.707031 181.503906 C 556.875 181.503906 560.65625 182.75 563.058594 185.242188 C 565.460938 187.730469 566.660156 190.929688 566.660156 194.824219 C 566.660156 197.726562 565.9375 200.304688 564.484375 202.574219 C 563.035156 204.839844 561.132812 206.609375 558.773438 207.875 C 556.417969 209.144531 553.832031 209.777344 551.023438 209.777344 C 550.296875 209.777344 549.527344 209.4375 548.714844 208.757812 C 547.898438 208.078125 546.902344 206.878906 545.722656 205.15625 C 544.546875 203.34375 543.414062 201.984375 542.324219 201.078125 C 541.238281 200.171875 539.96875 199.71875 538.519531 199.71875 C 536.253906 199.71875 533.695312 200.785156 530.839844 202.914062 C 527.988281 205.042969 525.019531 208.03125 521.9375 211.886719 C 518.851562 215.738281 515.773438 220.3125 512.691406 225.617188 C 509.605469 230.917969 506.664062 236.765625 503.855469 243.152344 C 501.046875 249.542969 498.554688 256.320312 496.378906 263.476562 L 485.230469 300.046875 L 466.875 300.046875 L 497.601562 198.632812 Z M 497.601562 198.636719 " fill-opacity="1" fill-rule="nonzero"/><path fill="#faf9f6" d="M 568.292969 220.929688 L 563.398438 218.890625 C 567.117188 209.285156 571.171875 201.785156 575.566406 196.390625 C 579.964844 191 584.609375 187.195312 589.5 184.972656 C 594.394531 182.753906 599.289062 181.640625 604.183594 181.640625 C 605.90625 181.640625 607.605469 181.757812 609.28125 181.984375 C 610.957031 182.207031 612.632812 182.503906 614.308594 182.867188 C 615.988281 183.230469 617.640625 183.683594 619.273438 184.226562 L 602.957031 237.246094 L 602.144531 237.246094 C 606.132812 230.175781 610.414062 223.332031 614.992188 216.71875 C 619.570312 210.101562 624.394531 204.191406 629.46875 198.976562 C 634.542969 193.765625 639.800781 189.621094 645.242188 186.539062 C 650.679688 183.457031 656.207031 181.914062 661.824219 181.914062 C 669.347656 181.914062 674.535156 183.527344 677.394531 186.742188 C 680.246094 189.957031 681.675781 194.152344 681.675781 199.320312 C 681.675781 202.21875 681.222656 205.4375 680.316406 208.972656 C 679.410156 212.507812 678.1875 216.3125 676.644531 220.390625 L 649.726562 290.402344 L 649.996094 285.371094 C 652.988281 285.371094 656.296875 284.738281 659.921875 283.46875 C 663.542969 282.199219 667.308594 280.34375 671.207031 277.894531 C 675.101562 275.449219 678.863281 272.546875 682.488281 269.195312 L 686.570312 273.410156 C 680.226562 280.839844 674.355469 286.707031 668.960938 291.015625 C 663.570312 295.320312 658.605469 298.355469 654.074219 300.125 C 649.546875 301.890625 645.242188 302.773438 641.164062 302.773438 C 635.269531 302.773438 631.691406 301.933594 630.421875 300.257812 C 629.152344 298.582031 629.515625 295.207031 631.507812 290.132812 L 660.195312 216.039062 C 660.917969 214.136719 661.53125 212.28125 662.03125 210.464844 C 662.527344 208.652344 662.777344 206.976562 662.777344 205.4375 C 662.777344 203.171875 662.050781 201.359375 660.601562 200 C 659.152344 198.640625 656.523438 197.960938 652.71875 197.960938 C 648.367188 197.960938 643.519531 199.816406 638.171875 203.535156 C 632.824219 207.25 627.453125 212.371094 622.0625 218.894531 C 616.671875 225.417969 611.6875 232.917969 607.109375 241.394531 C 602.53125 249.867188 598.792969 258.863281 595.894531 268.378906 L 586.242188 300.054688 L 567.890625 300.054688 L 598.613281 198.640625 L 596.574219 198.640625 C 593.308594 198.640625 590.136719 199.273438 587.058594 200.542969 C 583.976562 201.8125 580.894531 204.054688 577.8125 207.273438 C 574.730469 210.488281 571.558594 215.046875 568.296875 220.933594 Z M 568.292969 220.929688 " fill-opacity="1" fill-rule="nonzero"/><path fill="#faf9f6" d="M 759.703125 293.933594 L 773.839844 250.160156 L 777.375 250.160156 C 770.578125 260.21875 764.460938 268.625 759.019531 275.375 C 753.582031 282.125 748.621094 287.476562 744.132812 291.417969 C 739.648438 295.359375 735.527344 298.167969 731.765625 299.84375 C 728.003906 301.519531 724.355469 302.359375 720.820312 302.359375 C 715.925781 302.359375 711.667969 301.453125 708.039062 299.640625 C 704.417969 297.828125 701.605469 294.953125 699.613281 291.007812 C 697.617188 287.066406 696.621094 281.921875 696.621094 275.578125 C 696.621094 268.785156 697.9375 261.28125 700.5625 253.078125 C 703.191406 244.878906 706.839844 236.71875 711.507812 228.609375 C 716.175781 220.5 721.65625 213.042969 727.957031 206.25 C 734.257812 199.453125 741.144531 194.011719 748.621094 189.933594 C 756.097656 185.855469 763.871094 183.816406 771.933594 183.816406 C 777.191406 183.816406 781.515625 184.722656 784.917969 186.535156 C 788.316406 188.347656 791.421875 191.113281 794.230469 194.828125 L 788.792969 202.167969 C 788.066406 199.992188 786.484375 198.023438 784.035156 196.253906 C 781.585938 194.488281 778.414062 193.605469 774.519531 193.605469 C 767.992188 193.605469 761.828125 195.644531 756.03125 199.722656 C 750.230469 203.800781 744.925781 209.101562 740.125 215.628906 C 735.320312 222.152344 731.175781 229.105469 727.6875 236.496094 C 724.195312 243.882812 721.5 250.953125 719.597656 257.703125 C 717.695312 264.453125 716.746094 270.050781 716.746094 274.492188 C 716.746094 278.386719 717.832031 281.285156 720.007812 283.191406 C 722.183594 285.09375 724.949219 286.046875 728.304688 286.046875 C 731.292969 286.046875 735.097656 284.734375 739.722656 282.105469 C 744.34375 279.476562 749.148438 275.828125 754.132812 271.160156 C 759.117188 266.492188 763.761719 260.964844 768.066406 254.574219 C 772.371094 248.1875 775.746094 241.277344 778.191406 233.84375 L 794.097656 184.226562 L 812.585938 184.226562 L 778.464844 290.398438 L 776.152344 285.230469 C 779.144531 285.683594 782.5625 285.320312 786.417969 284.144531 C 790.269531 282.96875 794.300781 281.085938 798.515625 278.503906 C 802.730469 275.917969 806.832031 272.816406 810.820312 269.191406 L 814.625 273.539062 C 804.835938 284.414062 796.382812 292.003906 789.269531 296.308594 C 782.15625 300.613281 775.5625 302.769531 769.492188 302.769531 C 765.59375 302.769531 762.761719 301.953125 760.992188 300.320312 C 759.226562 298.691406 758.796875 296.5625 759.703125 293.933594 Z M 759.703125 293.933594 " fill-opacity="1" fill-rule="nonzero"/><path fill="#faf9f6" d="M 971.777344 290.398438 L 972.046875 285.367188 C 975.039062 285.367188 978.347656 284.734375 981.972656 283.464844 C 985.59375 282.195312 989.359375 280.339844 993.253906 277.890625 C 997.152344 275.445312 1000.914062 272.542969 1004.539062 269.191406 L 1008.617188 273.40625 C 1002.273438 280.839844 996.40625 286.703125 991.011719 291.011719 C 985.621094 295.316406 980.65625 298.351562 976.125 300.121094 C 971.597656 301.886719 967.292969 302.773438 963.210938 302.773438 C 957.320312 302.773438 953.742188 301.933594 952.472656 300.253906 C 951.203125 298.578125 951.566406 295.203125 953.558594 290.128906 L 982.382812 215.492188 C 983.105469 213.589844 983.671875 211.820312 984.082031 210.191406 C 984.488281 208.5625 984.691406 207.019531 984.691406 205.570312 C 984.691406 203.214844 983.964844 201.378906 982.515625 200.0625 C 981.0625 198.75 978.527344 198.089844 974.902344 198.089844 C 970.824219 198.089844 966.382812 199.765625 961.578125 203.121094 C 956.773438 206.472656 951.925781 211.140625 947.03125 217.121094 C 942.136719 223.105469 937.492188 230.082031 933.097656 238.058594 C 928.699219 246.03125 924.871094 254.597656 921.609375 263.75 L 910.191406 300.046875 L 891.566406 300.046875 L 919.296875 215.492188 C 919.75 214.222656 920.136719 213 920.453125 211.820312 C 920.773438 210.640625 921.019531 209.53125 921.203125 208.488281 C 921.382812 207.445312 921.472656 206.472656 921.472656 205.5625 C 921.472656 203.207031 920.769531 201.371094 919.367188 200.058594 C 917.960938 198.742188 915.535156 198.085938 912.09375 198.085938 C 907.742188 198.085938 903.097656 199.898438 898.15625 203.523438 C 893.214844 207.144531 888.324219 212.175781 883.476562 218.613281 C 878.625 225.046875 874.074219 232.523438 869.8125 241.039062 C 865.554688 249.5625 861.929688 258.667969 858.9375 268.367188 L 849.285156 300.042969 L 830.933594 300.042969 L 861.65625 198.628906 L 859.617188 198.628906 C 856.351562 198.628906 853.179688 199.261719 850.101562 200.53125 C 847.019531 201.800781 843.9375 204.042969 840.855469 207.261719 C 837.773438 210.476562 834.601562 215.03125 831.339844 220.921875 L 826.445312 218.882812 C 830.164062 209.273438 834.21875 201.773438 838.613281 196.382812 C 843.007812 190.988281 847.65625 187.183594 852.546875 184.964844 C 857.441406 182.742188 862.335938 181.632812 867.230469 181.632812 C 868.953125 181.632812 870.652344 181.746094 872.328125 181.972656 C 874.003906 182.199219 875.679688 182.496094 877.355469 182.859375 C 879.035156 183.21875 880.6875 183.671875 882.320312 184.214844 L 867.09375 233.425781 L 866.140625 233.425781 C 872.125 223.1875 877.582031 214.6875 882.523438 207.9375 C 887.464844 201.1875 892.105469 195.882812 896.457031 192.03125 C 900.808594 188.179688 904.980469 185.464844 908.964844 183.875 C 912.953125 182.289062 916.941406 181.496094 920.925781 181.496094 C 928.179688 181.496094 933.296875 182.832031 936.289062 185.507812 C 939.277344 188.179688 940.773438 191.738281 940.773438 196.179688 C 940.773438 199.167969 940.273438 202.636719 939.277344 206.578125 C 938.28125 210.519531 936.96875 215.121094 935.335938 220.378906 L 933.296875 227.039062 L 932.210938 227.039062 C 937.285156 218.519531 942.109375 211.339844 946.6875 205.492188 C 951.265625 199.648438 955.683594 194.953125 959.941406 191.417969 C 964.203125 187.882812 968.347656 185.324219 972.382812 183.738281 C 976.414062 182.152344 980.378906 181.359375 984.277344 181.359375 C 991.527344 181.359375 996.601562 182.738281 999.503906 185.503906 C 1002.40625 188.269531 1003.851562 192.050781 1003.851562 196.855469 C 1003.851562 199.847656 1003.375 203.292969 1002.425781 207.1875 C 1001.472656 211.082031 1000.046875 215.570312 998.140625 220.644531 L 971.769531 290.382812 Z M 971.777344 290.398438 " fill-opacity="1" fill-rule="nonzero"/><path fill="#faf9f6" d="M 1082.84375 190.613281 C 1077.496094 190.613281 1072.695312 192.203125 1068.433594 195.375 C 1064.175781 198.546875 1060.4375 202.761719 1057.21875 208.015625 C 1054.003906 213.273438 1051.328125 219.050781 1049.199219 225.351562 C 1047.070312 231.648438 1045.460938 237.972656 1044.371094 244.316406 C 1043.285156 250.660156 1042.742188 256.457031 1042.742188 261.714844 C 1042.742188 271.050781 1044.597656 277.667969 1048.316406 281.5625 C 1052.03125 285.460938 1056.878906 287.40625 1062.859375 287.40625 C 1066.9375 287.40625 1070.765625 286.683594 1074.347656 285.230469 C 1077.929688 283.78125 1081.375 281.269531 1084.679688 277.683594 C 1087.988281 274.105469 1091.226562 269.054688 1094.398438 262.527344 L 1102.011719 262.527344 C 1097.570312 272.859375 1093.152344 280.949219 1088.757812 286.792969 C 1084.359375 292.636719 1079.605469 296.765625 1074.484375 299.164062 C 1069.363281 301.566406 1063.40625 302.765625 1056.605469 302.765625 C 1049.808594 302.765625 1043.894531 301.429688 1038.867188 298.753906 C 1033.835938 296.082031 1029.9375 292.113281 1027.175781 286.859375 C 1024.410156 281.601562 1023.027344 275.121094 1023.027344 267.417969 C 1023.027344 257.902344 1024.140625 248.839844 1026.359375 240.230469 C 1028.582031 231.621094 1031.707031 223.757812 1035.738281 216.640625 C 1039.773438 209.527344 1044.441406 203.34375 1049.742188 198.085938 C 1055.039062 192.828125 1060.816406 188.75 1067.074219 185.847656 C 1073.328125 182.945312 1079.761719 181.5 1086.378906 181.5 C 1092.722656 181.5 1097.890625 182.609375 1101.875 184.832031 C 1105.863281 187.050781 1108.785156 189.949219 1110.644531 193.53125 C 1112.5 197.109375 1113.429688 200.941406 1113.429688 205.019531 C 1113.429688 208.917969 1112.589844 212.792969 1110.914062 216.640625 C 1109.238281 220.496094 1107.082031 223.507812 1104.457031 225.683594 C 1099.199219 227.859375 1093.945312 229.988281 1088.683594 232.070312 C 1083.429688 234.15625 1078.148438 236.171875 1072.847656 238.121094 C 1067.546875 240.066406 1062.242188 241.972656 1056.941406 243.832031 C 1051.644531 245.6875 1046.316406 247.480469 1040.96875 249.203125 L 1041.375 239.410156 C 1050.078125 236.964844 1057.554688 234.519531 1063.804688 232.070312 C 1070.0625 229.625 1075.246094 227.222656 1079.371094 224.867188 C 1083.496094 222.507812 1086.738281 220.132812 1089.09375 217.730469 C 1091.449219 215.328125 1093.125 212.925781 1094.121094 210.523438 C 1095.117188 208.121094 1095.617188 205.699219 1095.617188 203.25 C 1095.617188 200.710938 1095.117188 198.515625 1094.121094 196.660156 C 1093.125 194.800781 1091.699219 193.328125 1089.839844 192.238281 C 1087.980469 191.152344 1085.648438 190.609375 1082.835938 190.609375 Z M 1082.84375 190.613281 " fill-opacity="1" fill-rule="nonzero"/><path fill="#faf9f6" d="M 1128.65625 220.929688 L 1123.765625 218.890625 C 1127.480469 209.285156 1131.535156 201.785156 1135.929688 196.390625 C 1140.328125 191 1144.972656 187.195312 1149.863281 184.972656 C 1154.757812 182.753906 1159.65625 181.640625 1164.546875 181.640625 C 1166.269531 181.640625 1167.96875 181.757812 1169.644531 181.984375 C 1171.320312 182.207031 1172.996094 182.503906 1174.675781 182.867188 C 1176.351562 183.230469 1178.003906 183.683594 1179.636719 184.226562 L 1163.324219 237.246094 L 1162.507812 237.246094 C 1166.496094 230.175781 1170.777344 223.332031 1175.355469 216.71875 C 1179.933594 210.101562 1184.757812 204.191406 1189.835938 198.976562 C 1194.910156 193.765625 1200.164062 189.621094 1205.605469 186.539062 C 1211.042969 183.457031 1216.570312 181.914062 1222.191406 181.914062 C 1229.710938 181.914062 1234.898438 183.527344 1237.757812 186.742188 C 1240.609375 189.957031 1242.039062 194.152344 1242.039062 199.320312 C 1242.039062 202.21875 1241.585938 205.4375 1240.679688 208.972656 C 1239.773438 212.507812 1238.550781 216.3125 1237.007812 220.390625 L 1210.089844 290.402344 L 1210.359375 285.371094 C 1213.351562 285.371094 1216.660156 284.738281 1220.285156 283.46875 C 1223.90625 282.199219 1227.671875 280.34375 1231.570312 277.894531 C 1235.464844 275.449219 1239.226562 272.546875 1242.855469 269.195312 L 1246.933594 273.410156 C 1240.589844 280.839844 1234.71875 286.707031 1229.324219 291.015625 C 1223.933594 295.320312 1218.96875 298.355469 1214.441406 300.125 C 1209.910156 301.890625 1205.605469 302.773438 1201.527344 302.773438 C 1195.632812 302.773438 1192.054688 301.933594 1190.785156 300.257812 C 1189.515625 298.582031 1189.878906 295.207031 1191.875 290.132812 L 1220.558594 216.039062 C 1221.285156 214.136719 1221.894531 212.28125 1222.394531 210.464844 C 1222.894531 208.652344 1223.140625 206.976562 1223.140625 205.4375 C 1223.140625 203.171875 1222.414062 201.359375 1220.964844 200 C 1219.515625 198.640625 1216.886719 197.960938 1213.082031 197.960938 C 1208.730469 197.960938 1203.882812 199.816406 1198.535156 203.535156 C 1193.1875 207.25 1187.816406 212.371094 1182.429688 218.894531 C 1177.035156 225.417969 1172.050781 232.917969 1167.476562 241.394531 C 1162.898438 249.867188 1159.15625 258.863281 1156.261719 268.378906 L 1146.605469 300.054688 L 1128.253906 300.054688 L 1158.976562 198.640625 L 1156.9375 198.640625 C 1153.671875 198.640625 1150.5 199.273438 1147.421875 200.542969 C 1144.339844 201.8125 1141.257812 204.054688 1138.175781 207.273438 C 1135.09375 210.488281 1131.921875 215.046875 1128.660156 220.933594 Z M 1128.65625 220.929688 " fill-opacity="1" fill-rule="nonzero"/><path fill="#faf9f6" d="M 1270.71875 195.101562 L 1273.167969 184.226562 L 1339.78125 184.226562 L 1337.605469 195.101562 Z M 1289.34375 271.363281 C 1288.980469 272.722656 1288.664062 273.96875 1288.394531 275.101562 C 1288.125 276.234375 1287.917969 277.257812 1287.78125 278.160156 C 1287.644531 279.066406 1287.578125 279.878906 1287.578125 280.605469 C 1287.578125 282.058594 1287.851562 283.144531 1288.394531 283.871094 C 1288.9375 284.597656 1289.664062 284.957031 1290.570312 284.957031 C 1292.472656 284.957031 1295.101562 283.824219 1298.453125 281.5625 C 1301.808594 279.296875 1305.523438 276.144531 1309.601562 272.113281 C 1313.679688 268.078125 1317.757812 263.34375 1321.835938 257.90625 L 1327.273438 261.441406 C 1323.378906 267.515625 1319.457031 273.039062 1315.515625 278.027344 C 1311.574219 283.011719 1307.699219 287.339844 1303.894531 291.007812 C 1300.089844 294.679688 1296.394531 297.511719 1292.816406 299.507812 C 1289.238281 301.503906 1285.769531 302.5 1282.414062 302.5 C 1278.519531 302.5 1275.390625 301.367188 1273.035156 299.101562 C 1270.679688 296.835938 1269.503906 292.9375 1269.503906 287.410156 C 1269.503906 284.960938 1269.75 282.128906 1270.25 278.910156 C 1270.75 275.695312 1271.585938 272.042969 1272.765625 267.964844 L 1302.675781 160.566406 L 1321.03125 160.566406 L 1289.355469 271.363281 Z M 1289.34375 271.363281 " fill-opacity="1" fill-rule="nonzero"/><path fill="#faf9f6" d="M 1402.585938 190.613281 C 1397.238281 190.613281 1392.4375 192.203125 1388.179688 195.375 C 1383.917969 198.546875 1380.179688 202.761719 1376.964844 208.015625 C 1373.746094 213.273438 1371.070312 219.050781 1368.941406 225.351562 C 1366.816406 231.648438 1365.203125 237.972656 1364.117188 244.316406 C 1363.027344 250.660156 1362.484375 256.457031 1362.484375 261.714844 C 1362.484375 271.050781 1364.34375 277.667969 1368.058594 281.5625 C 1371.773438 285.460938 1376.625 287.40625 1382.605469 287.40625 C 1386.683594 287.40625 1390.511719 286.683594 1394.09375 285.230469 C 1397.671875 283.78125 1401.117188 281.269531 1404.421875 277.683594 C 1407.730469 274.105469 1410.972656 269.054688 1414.144531 262.527344 L 1421.757812 262.527344 C 1417.316406 272.859375 1412.894531 280.949219 1408.5 286.792969 C 1404.105469 292.636719 1399.347656 296.765625 1394.226562 299.164062 C 1389.109375 301.566406 1383.148438 302.765625 1376.351562 302.765625 C 1369.554688 302.765625 1363.640625 301.429688 1358.609375 298.753906 C 1353.578125 296.082031 1349.683594 292.113281 1346.917969 286.859375 C 1344.152344 281.601562 1342.773438 275.121094 1342.773438 267.417969 C 1342.773438 257.902344 1343.882812 248.839844 1346.101562 240.230469 C 1348.324219 231.621094 1351.453125 223.757812 1355.480469 216.640625 C 1359.515625 209.527344 1364.183594 203.34375 1369.484375 198.085938 C 1374.785156 192.828125 1380.5625 188.75 1386.816406 185.847656 C 1393.070312 182.945312 1399.503906 181.5 1406.121094 181.5 C 1412.464844 181.5 1417.632812 182.609375 1421.621094 184.832031 C 1425.605469 187.050781 1428.53125 189.949219 1430.386719 193.53125 C 1432.246094 197.109375 1433.175781 200.941406 1433.175781 205.019531 C 1433.175781 208.917969 1432.335938 212.792969 1430.65625 216.640625 C 1428.980469 220.496094 1426.828125 223.507812 1424.199219 225.683594 C 1418.945312 227.859375 1413.6875 229.988281 1408.429688 232.070312 C 1403.171875 234.15625 1397.890625 236.171875 1392.589844 238.121094 C 1387.292969 240.066406 1381.988281 241.972656 1376.6875 243.832031 C 1371.386719 245.6875 1366.0625 247.480469 1360.710938 249.203125 L 1361.121094 239.410156 C 1369.820312 236.964844 1377.296875 234.519531 1383.550781 232.070312 C 1389.804688 229.625 1394.992188 227.222656 1399.117188 224.867188 C 1403.238281 222.507812 1406.480469 220.132812 1408.835938 217.730469 C 1411.195312 215.328125 1412.871094 212.925781 1413.867188 210.523438 C 1414.863281 208.121094 1415.359375 205.699219 1415.359375 203.25 C 1415.359375 200.710938 1414.863281 198.515625 1413.867188 196.660156 C 1412.871094 194.800781 1411.441406 193.328125 1409.582031 192.238281 C 1407.726562 191.152344 1405.390625 190.609375 1402.582031 190.609375 Z M 1402.585938 190.613281 " fill-opacity="1" fill-rule="nonzero"/><path fill="#000000" d="M 176.015625 866.789062 L 204.359375 858.011719 L 204.359375 771.519531 C 204.359375 764.933594 202.957031 759.238281 200.152344 754.421875 C 197.347656 749.605469 193.203125 745.886719 187.71875 743.265625 C 182.234375 740.644531 175.527344 739.332031 167.605469 739.332031 C 157.976562 739.332031 149.042969 741.132812 140.816406 744.730469 C 132.589844 748.324219 126.890625 752.621094 123.71875 757.621094 L 116.585938 751.769531 C 123.046875 744.820312 129.171875 738.9375 134.964844 734.125 C 140.753906 729.308594 146.421875 725.441406 151.96875 722.511719 C 157.515625 719.585938 163.214844 717.453125 169.066406 716.113281 C 174.917969 714.773438 181.074219 714.101562 187.535156 714.101562 C 202.285156 714.101562 213.226562 718.824219 220.359375 728.273438 C 227.492188 737.722656 231.054688 752.683594 231.054688 773.164062 L 231.054688 858.011719 L 259.214844 866.789062 L 259.214844 873.554688 L 176.011719 873.554688 L 176.011719 866.789062 Z M 153.886719 873.554688 L 71.050781 873.554688 L 71.050781 866.789062 L 98.84375 858.011719 L 98.84375 650.832031 C 97.257812 648.878906 95.183594 646.929688 92.628906 644.980469 C 90.066406 643.03125 86.957031 641.046875 83.300781 639.035156 C 79.644531 637.027344 75.441406 635.042969 70.683594 633.09375 L 70.683594 629.433594 L 123.714844 614.074219 L 127.371094 614.074219 L 125.542969 643.332031 L 125.542969 858.011719 L 153.886719 866.789062 Z M 153.886719 873.554688 " fill-opacity="1" fill-rule="nonzero"/><path fill="#000000" d="M 372.222656 774.261719 L 375.152344 787.058594 C 360.765625 790.351562 349.003906 793.675781 339.859375 797.023438 C 330.714844 800.378906 323.585938 803.820312 318.460938 807.355469 C 313.34375 810.890625 309.777344 814.636719 307.765625 818.601562 C 305.757812 822.5625 304.75 826.921875 304.75 831.675781 C 304.75 839.96875 307.21875 846.304688 312.15625 850.691406 C 317.09375 855.078125 323.097656 857.273438 330.167969 857.273438 C 335.898438 857.273438 341.140625 855.8125 345.894531 852.886719 C 350.648438 849.960938 354.457031 846.121094 357.320312 841.367188 C 360.183594 836.613281 361.621094 831.492188 361.621094 826.007812 L 361.621094 760.179688 C 361.621094 751.402344 359.363281 744.390625 354.851562 739.148438 C 350.339844 733.90625 342.90625 731.289062 332.542969 731.289062 C 328.886719 731.289062 324.683594 731.867188 319.925781 733.023438 C 315.171875 734.183594 310.539062 735.921875 306.03125 738.234375 L 315.355469 729.824219 C 314.988281 733.238281 314.46875 736.652344 313.796875 740.066406 C 313.128906 743.480469 312.335938 746.527344 311.421875 749.210938 C 310.507812 751.890625 309.378906 753.960938 308.039062 755.425781 C 306.089844 757.496094 303.652344 759.019531 300.726562 759.996094 C 297.800781 760.972656 294.875 761.460938 291.949219 761.460938 C 288.167969 761.460938 285.179688 760.578125 282.988281 758.8125 C 280.792969 757.042969 279.695312 754.816406 279.695312 752.136719 C 279.695312 748.355469 281.554688 744.363281 285.273438 740.15625 C 288.992188 735.953125 293.929688 731.992188 300.085938 728.273438 C 306.242188 724.550781 313.097656 721.535156 320.65625 719.21875 C 328.21875 716.902344 335.898438 715.746094 343.699219 715.746094 C 354.304688 715.746094 362.898438 717.363281 369.480469 720.589844 C 376.0625 723.820312 380.847656 728.578125 383.835938 734.855469 C 386.824219 741.132812 388.316406 748.84375 388.316406 757.988281 L 388.316406 841.550781 C 388.316406 845.332031 388.863281 848.472656 389.960938 850.96875 C 391.058594 853.46875 392.675781 855.355469 394.804688 856.640625 C 396.941406 857.917969 399.589844 858.558594 402.757812 858.558594 C 405.5625 858.558594 408.582031 858.011719 411.8125 856.914062 C 415.039062 855.816406 418.179688 854.351562 421.226562 852.523438 L 421.226562 860.9375 C 416.230469 866.421875 410.957031 870.445312 405.410156 873.003906 C 399.863281 875.566406 394.714844 876.84375 389.957031 876.84375 C 384.105469 876.84375 379.078125 875.535156 374.871094 872.914062 C 370.664062 870.289062 367.464844 866.511719 365.273438 861.574219 C 363.078125 856.636719 361.980469 850.816406 361.980469 844.109375 L 363.078125 842.28125 C 361.492188 849.109375 358.535156 855.140625 354.207031 860.382812 C 349.878906 865.625 344.699219 869.738281 338.664062 872.726562 C 332.628906 875.714844 326.199219 877.207031 319.371094 877.207031 C 307.179688 877.207031 297.125 873.792969 289.199219 866.964844 C 281.273438 860.136719 277.3125 850.328125 277.3125 837.523438 C 277.3125 830.695312 278.683594 824.480469 281.425781 818.871094 C 284.167969 813.261719 289.015625 807.992188 295.964844 803.050781 C 302.910156 798.113281 312.574219 793.300781 324.945312 788.605469 C 337.320312 783.914062 353.078125 779.128906 372.21875 774.25 Z M 372.222656 774.261719 " fill-opacity="1" fill-rule="nonzero"/><path fill="#000000" d="M 457.984375 863.132812 L 477.183594 863.132812 L 448.476562 876.480469 L 442.625 874.285156 L 446.644531 836.070312 L 446.644531 650.835938 C 445.0625 648.882812 442.988281 646.933594 440.429688 644.984375 C 437.867188 643.03125 434.757812 641.050781 431.105469 639.039062 C 427.445312 637.03125 423.242188 635.046875 418.484375 633.097656 L 418.484375 629.4375 L 471.515625 614.078125 L 475.175781 614.078125 L 473.34375 643.335938 L 473.34375 826.742188 C 473.34375 833.324219 475.113281 839.300781 478.648438 844.664062 C 482.183594 850.027344 487.273438 854.261719 493.917969 857.375 C 500.558594 860.480469 508.453125 862.039062 517.597656 862.039062 C 527.957031 862.039062 536.765625 859.355469 544.019531 853.992188 C 551.273438 848.628906 556.847656 841.007812 560.75 831.136719 C 564.648438 821.261719 566.601562 809.679688 566.601562 796.394531 C 566.601562 782.984375 564.4375 771.617188 560.109375 762.292969 C 555.785156 752.964844 549.78125 745.894531 542.101562 741.082031 C 534.417969 736.265625 525.519531 733.859375 515.402344 733.859375 C 508.210938 733.859375 501.386719 734.46875 494.925781 735.6875 C 488.464844 736.90625 482.460938 738.734375 476.914062 741.171875 C 471.367188 743.609375 466.21875 746.71875 461.460938 750.496094 L 461.460938 737.515625 C 468.042969 733.492188 474.320312 730.015625 480.296875 727.089844 C 486.269531 724.164062 491.9375 721.757812 497.300781 719.871094 C 502.664062 717.980469 507.84375 716.546875 512.84375 715.570312 C 517.839844 714.59375 522.59375 714.109375 527.105469 714.109375 C 542.464844 714.109375 555.355469 717.214844 565.78125 723.433594 C 576.203125 729.648438 584.097656 738.273438 589.460938 749.308594 C 594.824219 760.339844 597.503906 773.109375 597.503906 787.617188 C 597.503906 801.027344 595.34375 813.21875 591.015625 824.1875 C 586.6875 835.160156 580.5625 844.605469 572.640625 852.53125 C 564.714844 860.457031 555.421875 866.550781 544.753906 870.820312 C 534.085938 875.085938 522.414062 877.21875 509.734375 877.21875 C 504.617188 877.21875 499.371094 876.734375 494.007812 875.757812 C 488.644531 874.78125 483.007812 873.289062 477.09375 871.277344 C 471.179688 869.265625 464.8125 866.550781 457.984375 863.140625 Z M 457.984375 863.132812 " fill-opacity="1" fill-rule="nonzero"/><path fill="#000000" d="M 671.566406 858.011719 L 699.910156 866.789062 L 699.910156 873.554688 L 617.070312 873.554688 L 617.070312 866.789062 L 644.867188 858.011719 L 644.867188 650.832031 C 643.28125 648.878906 641.207031 646.929688 638.648438 644.980469 C 636.085938 643.03125 632.980469 641.046875 629.324219 639.035156 C 625.664062 637.027344 621.460938 635.042969 616.707031 633.09375 L 616.707031 629.433594 L 669.734375 614.074219 L 673.394531 614.074219 L 671.566406 643.332031 Z M 671.566406 858.011719 " fill-opacity="1" fill-rule="nonzero"/><path fill="#000000" d="M 815.292969 774.261719 L 818.21875 787.058594 C 803.835938 790.351562 792.070312 793.675781 782.925781 797.023438 C 773.785156 800.378906 766.652344 803.820312 761.53125 807.355469 C 756.414062 810.890625 752.847656 814.636719 750.835938 818.601562 C 748.824219 822.5625 747.820312 826.921875 747.820312 831.675781 C 747.820312 839.96875 750.289062 846.304688 755.226562 850.691406 C 760.164062 855.078125 766.167969 857.273438 773.234375 857.273438 C 778.964844 857.273438 784.210938 855.8125 788.960938 852.886719 C 793.714844 849.960938 797.527344 846.121094 800.390625 841.367188 C 803.253906 836.613281 804.6875 831.492188 804.6875 826.007812 L 804.6875 760.179688 C 804.6875 751.402344 802.433594 744.390625 797.921875 739.148438 C 793.410156 733.90625 785.976562 731.289062 775.613281 731.289062 C 771.953125 731.289062 767.75 731.867188 762.996094 733.023438 C 758.242188 734.183594 753.609375 735.921875 749.097656 738.234375 L 758.421875 729.824219 C 758.058594 733.238281 757.539062 736.652344 756.867188 740.066406 C 756.195312 743.480469 755.402344 746.527344 754.492188 749.210938 C 753.578125 751.890625 752.449219 753.960938 751.109375 755.425781 C 749.160156 757.496094 746.722656 759.019531 743.792969 759.996094 C 740.867188 760.972656 737.945312 761.460938 735.015625 761.460938 C 731.238281 761.460938 728.25 760.578125 726.058594 758.8125 C 723.863281 757.042969 722.765625 754.816406 722.765625 752.136719 C 722.765625 748.355469 724.621094 744.363281 728.34375 740.15625 C 732.0625 735.953125 737 731.992188 743.15625 728.273438 C 749.3125 724.550781 756.167969 721.535156 763.726562 719.21875 C 771.285156 716.902344 778.964844 715.746094 786.765625 715.746094 C 797.375 715.746094 805.96875 717.363281 812.550781 720.589844 C 819.132812 723.820312 823.917969 728.578125 826.90625 734.855469 C 829.890625 741.132812 831.382812 748.84375 831.382812 757.988281 L 831.382812 841.550781 C 831.382812 845.332031 831.929688 848.472656 833.027344 850.96875 C 834.125 853.46875 835.742188 855.355469 837.875 856.640625 C 840.007812 857.917969 842.660156 858.558594 845.828125 858.558594 C 848.632812 858.558594 851.652344 858.011719 854.878906 856.914062 C 858.109375 855.816406 861.25 854.351562 864.296875 852.523438 L 864.296875 860.9375 C 859.296875 866.421875 854.027344 870.445312 848.476562 873.003906 C 842.933594 875.566406 837.78125 876.84375 833.027344 876.84375 C 827.175781 876.84375 822.144531 875.535156 817.9375 872.914062 C 813.734375 870.289062 810.53125 866.511719 808.339844 861.574219 C 806.144531 856.636719 805.046875 850.816406 805.046875 844.109375 L 806.144531 842.28125 C 804.5625 849.109375 801.605469 855.140625 797.277344 860.382812 C 792.949219 865.625 787.765625 869.738281 781.734375 872.726562 C 775.699219 875.714844 769.269531 877.207031 762.441406 877.207031 C 750.25 877.207031 740.191406 873.792969 732.269531 866.964844 C 724.34375 860.136719 720.382812 850.328125 720.382812 837.523438 C 720.382812 830.695312 721.753906 824.480469 724.496094 818.871094 C 727.238281 813.261719 732.082031 807.992188 739.03125 803.050781 C 745.980469 798.113281 755.640625 793.300781 768.015625 788.605469 C 780.386719 783.914062 796.144531 779.128906 815.285156 774.25 Z M 815.292969 774.261719 " fill-opacity="1" fill-rule="nonzero"/><path fill="#000000" d="M 926.835938 747.5625 L 926.835938 858.011719 L 955.179688 866.789062 L 955.179688 873.554688 L 872.34375 873.554688 L 872.34375 866.789062 L 900.136719 858.011719 L 900.136719 750.308594 C 898.1875 748.234375 895.257812 746.222656 891.359375 744.273438 C 887.457031 742.320312 881.363281 740.003906 873.070312 737.324219 L 873.070312 732.75 L 917.507812 714.097656 L 921.347656 714.097656 L 926.832031 747.5625 Z M 977.304688 866.789062 L 1005.648438 858.011719 L 1005.648438 771.519531 C 1005.648438 764.933594 1004.246094 759.238281 1001.441406 754.421875 C 998.640625 749.605469 994.492188 745.886719 989.007812 743.265625 C 983.523438 740.644531 976.816406 739.332031 968.894531 739.332031 C 959.265625 739.332031 950.335938 741.132812 942.105469 744.730469 C 933.878906 748.324219 928.179688 752.621094 925.007812 757.621094 L 917.875 751.769531 C 924.339844 744.820312 930.460938 738.9375 936.253906 734.125 C 942.042969 729.308594 947.710938 725.441406 953.257812 722.511719 C 958.804688 719.585938 964.503906 717.453125 970.355469 716.113281 C 976.207031 714.773438 982.363281 714.101562 988.824219 714.101562 C 1003.574219 714.101562 1014.515625 718.824219 1021.648438 728.273438 C 1028.78125 737.722656 1032.34375 752.683594 1032.34375 773.164062 L 1032.34375 858.011719 L 1060.503906 866.789062 L 1060.503906 873.554688 L 977.300781 873.554688 L 977.300781 866.789062 Z M 977.304688 866.789062 " fill-opacity="1" fill-rule="nonzero"/><path fill="#000000" d="M 1201.492188 764.570312 C 1201.492188 754.453125 1197.894531 746.039062 1190.703125 739.332031 C 1183.507812 732.628906 1172.964844 729.277344 1159.070312 729.277344 C 1148.21875 729.277344 1138.984375 731.960938 1131.363281 737.324219 C 1123.746094 742.6875 1117.988281 750.273438 1114.085938 760.089844 C 1110.183594 769.90625 1108.234375 781.515625 1108.234375 794.925781 C 1108.234375 808.335938 1110.398438 819.703125 1114.726562 829.027344 C 1119.050781 838.351562 1125.054688 845.425781 1132.734375 850.238281 C 1140.417969 855.054688 1149.316406 857.460938 1159.433594 857.460938 C 1168.816406 857.460938 1177.808594 855.96875 1186.40625 852.980469 C 1194.996094 849.992188 1203.382812 845.332031 1211.546875 838.992188 L 1211.546875 851.976562 C 1202.769531 857.21875 1195.335938 861.511719 1189.238281 864.867188 C 1183.144531 868.21875 1177.78125 870.777344 1173.148438 872.546875 C 1168.515625 874.316406 1164.21875 875.535156 1160.257812 876.203125 C 1156.296875 876.875 1152.117188 877.210938 1147.730469 877.210938 C 1132.492188 877.210938 1119.632812 874.101562 1109.148438 867.886719 C 1098.664062 861.667969 1090.738281 853.011719 1085.375 841.917969 C 1080.011719 830.824219 1077.332031 818.085938 1077.332031 803.703125 C 1077.332031 789.683594 1079.613281 777.15625 1084.1875 766.125 C 1088.757812 755.089844 1095.035156 745.707031 1103.019531 737.964844 C 1111.007812 730.226562 1120.148438 724.3125 1130.449219 720.230469 C 1140.75 716.144531 1151.628906 714.105469 1163.085938 714.105469 C 1168.9375 714.105469 1174.667969 714.589844 1180.277344 715.566406 C 1185.886719 716.542969 1191.675781 718.035156 1197.648438 720.046875 C 1203.621094 722.058594 1210.019531 724.773438 1216.847656 728.1875 L 1201.488281 738.609375 L 1201.488281 645.714844 C 1200.023438 643.886719 1198.136719 642.179688 1195.820312 640.597656 C 1193.503906 639.011719 1190.851562 637.457031 1187.863281 635.933594 C 1184.878906 634.40625 1181.617188 632.914062 1178.082031 631.453125 L 1178.082031 628.160156 L 1226.359375 614.078125 L 1229.832031 614.078125 L 1228.1875 643.699219 L 1228.1875 847.957031 C 1229.285156 849.175781 1230.75 850.363281 1232.574219 851.523438 C 1234.402344 852.679688 1236.414062 853.808594 1238.609375 854.90625 C 1240.804688 856.003906 1242.996094 856.914062 1245.191406 857.648438 C 1247.386719 858.378906 1249.457031 858.867188 1251.410156 859.109375 L 1251.410156 864.59375 L 1207.703125 876.480469 L 1204.046875 876.480469 L 1201.484375 848.6875 L 1201.484375 764.574219 Z M 1201.492188 764.570312 " fill-opacity="1" fill-rule="nonzero"/><path fill="#000000" d="M 1350.523438 863.132812 C 1359.664062 863.132812 1367.832031 860.910156 1375.027344 856.457031 C 1382.21875 852.007812 1387.886719 845.117188 1392.03125 835.792969 C 1396.175781 826.46875 1398.246094 814.550781 1398.246094 800.042969 C 1398.246094 784.4375 1396.207031 771.304688 1392.125 760.636719 C 1388.039062 749.96875 1382.339844 741.894531 1375.027344 736.40625 C 1367.710938 730.921875 1359.117188 728.179688 1349.242188 728.179688 C 1340.101562 728.179688 1331.933594 730.402344 1324.738281 734.855469 C 1317.546875 739.304688 1311.878906 746.191406 1307.734375 755.519531 C 1303.589844 764.84375 1301.515625 776.761719 1301.515625 791.269531 C 1301.515625 806.75 1303.558594 819.855469 1307.640625 830.582031 C 1311.726562 841.308594 1317.457031 849.417969 1324.832031 854.902344 C 1332.207031 860.386719 1340.769531 863.128906 1350.523438 863.128906 Z M 1349.425781 877.214844 C 1334.0625 877.214844 1320.5 873.832031 1308.738281 867.066406 C 1296.972656 860.296875 1287.800781 850.914062 1281.21875 838.90625 C 1274.636719 826.898438 1271.34375 813.089844 1271.34375 797.488281 C 1271.34375 781.394531 1274.785156 767.074219 1281.675781 754.515625 C 1288.5625 741.957031 1297.949219 732.085938 1309.835938 724.894531 C 1321.71875 717.699219 1335.222656 714.105469 1350.335938 714.105469 C 1365.820312 714.105469 1379.414062 717.488281 1391.113281 724.253906 C 1402.816406 731.019531 1411.960938 740.375 1418.542969 752.324219 C 1425.125 764.269531 1428.417969 778.105469 1428.417969 793.832031 C 1428.417969 809.925781 1424.976562 824.246094 1418.085938 836.804688 C 1411.199219 849.363281 1401.8125 859.234375 1389.929688 866.429688 C 1378.042969 873.621094 1364.539062 877.214844 1349.425781 877.214844 Z M 1349.425781 877.214844 " fill-opacity="1" fill-rule="nonzero"/></svg>