<?xml version="1.0" encoding="UTF-8" standalone="no"?><!DOCTYPE svg PUBLIC "-//W3C//DTD SVG 1.1//EN" "http://www.w3.org/Graphics/SVG/1.1/DTD/svg11.dtd"><svg width="100%" height="100%" viewBox="0 0 500 500" version="1.1" xmlns="http://www.w3.org/2000/svg" xmlns:xlink="http://www.w3.org/1999/xlink" xml:space="preserve" xmlns:serif="http://www.serif.com/" style="fill-rule:evenodd;clip-rule:evenodd;stroke-linejoin:round;stroke-miterlimit:2;"><rect id="Mesa-de-trabajo1" serif:id="Mesa de trabajo1" x="0" y="0" width="500" height="500" style="fill:none;"/><g id="Mesa-de-trabajo11" serif:id="Mesa de trabajo1"><path d="M483.978,94.654l0,145.794l-40.136,-30.621l-101.192,30.621l-53.316,-27.879l-80.08,27.879l-115.941,-33.82l-78.038,33.82l0,-145.794l468.704,0Z"/><path d="M484.725,405.346l0,-145.794l-40.706,-34.872l-100.623,34.872l-54.182,-31.441l-79.215,31.441l-113.663,-35.659l-80.316,35.659l-0,145.794l468.704,0Z" style="fill:#faf9f6;"/><g><path d="M36.39,179.438l11.11,-31.022l1.239,0.94c-0.912,-0.028 -1.958,0.199 -3.141,0.684c-1.182,0.484 -2.4,1.175 -3.653,2.072c-1.253,0.897 -2.45,1.987 -3.589,3.269l-1.282,-1.239c1.966,-2.792 3.767,-4.942 5.405,-6.452c1.638,-1.51 3.169,-2.557 4.593,-3.141c1.424,-0.584 2.777,-0.876 4.059,-0.876c1.082,0 1.887,0.207 2.414,0.62c0.527,0.413 0.662,0.99 0.406,1.731l-11.11,31.876l-0.726,-1.624c0.94,0.114 2.015,-0.014 3.226,-0.385c1.211,-0.37 2.478,-0.954 3.803,-1.752c1.325,-0.798 2.614,-1.766 3.867,-2.906l1.196,1.367c-1.994,2.336 -3.831,4.173 -5.512,5.512c-1.681,1.339 -3.226,2.286 -4.636,2.842c-1.41,0.555 -2.756,0.833 -4.038,0.833c-1.567,0 -2.635,-0.199 -3.205,-0.598c-0.57,-0.399 -0.712,-0.983 -0.427,-1.752Zm14.272,-54.053c0,-0.912 0.207,-1.731 0.62,-2.457c0.413,-0.726 0.983,-1.303 1.709,-1.731c0.726,-0.427 1.574,-0.641 2.542,-0.641c1.453,0 2.628,0.463 3.525,1.389c0.897,0.926 1.346,2.072 1.346,3.44c0,0.912 -0.207,1.731 -0.62,2.457c-0.413,0.726 -0.983,1.303 -1.709,1.731c-0.726,0.427 -1.574,0.641 -2.542,0.641c-1.453,0 -2.628,-0.463 -3.525,-1.389c-0.897,-0.926 -1.346,-2.072 -1.346,-3.44Z" style="fill:#faf9f6;fill-rule:nonzero;"/><path d="M60.404,156.065l-1.538,-0.641c1.168,-3.02 2.443,-5.377 3.824,-7.072c1.382,-1.695 2.842,-2.891 4.38,-3.589c1.538,-0.698 3.077,-1.047 4.615,-1.047c0.541,0 1.075,0.036 1.602,0.107c0.527,0.071 1.054,0.164 1.581,0.278c0.527,0.114 1.047,0.256 1.56,0.427l-5.128,16.665l-0.256,0c1.253,-2.222 2.599,-4.373 4.038,-6.452c1.439,-2.08 2.955,-3.938 4.551,-5.576c1.595,-1.638 3.247,-2.941 4.957,-3.91c1.709,-0.969 3.447,-1.453 5.213,-1.453c2.364,0 3.995,0.506 4.893,1.517c0.897,1.011 1.346,2.329 1.346,3.953c0,0.912 -0.142,1.923 -0.427,3.034c-0.285,1.111 -0.669,2.307 -1.154,3.589l-8.461,22.006l0.085,-1.581c0.94,0 1.98,-0.199 3.119,-0.598c1.139,-0.399 2.322,-0.983 3.547,-1.752c1.225,-0.769 2.407,-1.681 3.547,-2.735l1.282,1.325c-1.994,2.336 -3.839,4.18 -5.534,5.534c-1.695,1.353 -3.255,2.307 -4.679,2.863c-1.424,0.555 -2.777,0.833 -4.059,0.833c-1.852,0 -2.977,-0.264 -3.376,-0.791c-0.399,-0.527 -0.285,-1.588 0.342,-3.183l9.016,-23.288c0.228,-0.598 0.42,-1.182 0.577,-1.752c0.157,-0.57 0.235,-1.097 0.235,-1.581c0,-0.712 -0.228,-1.282 -0.684,-1.709c-0.456,-0.427 -1.282,-0.641 -2.478,-0.641c-1.367,0 -2.891,0.584 -4.572,1.752c-1.681,1.168 -3.369,2.777 -5.063,4.828c-1.695,2.051 -3.262,4.408 -4.7,7.072c-1.439,2.663 -2.614,5.491 -3.525,8.482l-3.034,9.956l-5.769,0l9.657,-31.876l-0.641,0c-1.026,0 -2.023,0.199 -2.991,0.598c-0.969,0.399 -1.937,1.104 -2.906,2.115c-0.969,1.011 -1.966,2.443 -2.991,4.294Z" style="fill:#faf9f6;fill-rule:nonzero;"/><path d="M105.057,147.946l0.769,-3.418l20.938,0l-0.684,3.418l-21.023,0Zm5.854,23.971c-0.114,0.427 -0.214,0.819 -0.299,1.175c-0.085,0.356 -0.15,0.677 -0.192,0.961c-0.043,0.285 -0.064,0.541 -0.064,0.769c0,0.456 0.085,0.798 0.256,1.026c0.171,0.228 0.399,0.342 0.684,0.342c0.598,0 1.424,-0.356 2.478,-1.068c1.054,-0.712 2.222,-1.702 3.504,-2.97c1.282,-1.268 2.564,-2.756 3.846,-4.465l1.709,1.111c-1.225,1.909 -2.457,3.646 -3.696,5.213c-1.239,1.567 -2.457,2.927 -3.653,4.081c-1.196,1.154 -2.357,2.044 -3.482,2.671c-1.125,0.627 -2.215,0.94 -3.269,0.94c-1.225,0 -2.208,-0.356 -2.948,-1.068c-0.741,-0.712 -1.111,-1.937 -1.111,-3.675c0,-0.769 0.078,-1.659 0.235,-2.671c0.157,-1.011 0.42,-2.158 0.791,-3.44l9.401,-33.757l5.769,0l-9.956,34.825Z" style="fill:#faf9f6;fill-rule:nonzero;"/><path d="M146.505,146.536c-1.681,0 -3.19,0.499 -4.529,1.496c-1.339,0.997 -2.514,2.322 -3.525,3.974c-1.011,1.652 -1.852,3.468 -2.521,5.448c-0.669,1.98 -1.175,3.967 -1.517,5.961c-0.342,1.994 -0.513,3.817 -0.513,5.469c0,2.934 0.584,5.014 1.752,6.239c1.168,1.225 2.692,1.837 4.572,1.837c1.282,0 2.485,-0.228 3.611,-0.684c1.125,-0.456 2.208,-1.246 3.247,-2.372c1.04,-1.125 2.058,-2.713 3.055,-4.764l2.393,0c-1.396,3.247 -2.785,5.79 -4.166,7.627c-1.382,1.837 -2.877,3.134 -4.487,3.888c-1.609,0.755 -3.482,1.132 -5.619,1.132c-2.136,0 -3.995,-0.42 -5.576,-1.261c-1.581,-0.84 -2.806,-2.087 -3.675,-3.739c-0.869,-1.652 -1.303,-3.689 -1.303,-6.11c0,-2.991 0.349,-5.84 1.047,-8.546c0.698,-2.706 1.681,-5.177 2.948,-7.414c1.268,-2.236 2.735,-4.18 4.401,-5.833c1.666,-1.652 3.482,-2.934 5.448,-3.846c1.966,-0.912 3.988,-1.367 6.068,-1.367c1.994,0 3.618,0.349 4.871,1.047c1.253,0.698 2.172,1.609 2.756,2.735c0.584,1.125 0.876,2.329 0.876,3.611c0,1.225 -0.264,2.443 -0.791,3.653c-0.527,1.211 -1.204,2.158 -2.03,2.842c-1.652,0.684 -3.304,1.353 -4.957,2.008c-1.652,0.655 -3.312,1.289 -4.978,1.901c-1.666,0.612 -3.333,1.211 -4.999,1.795c-1.666,0.584 -3.34,1.147 -5.021,1.688l0.128,-3.077c2.735,-0.769 5.085,-1.538 7.05,-2.307c1.966,-0.769 3.596,-1.524 4.893,-2.265c1.296,-0.741 2.315,-1.488 3.055,-2.243c0.741,-0.755 1.268,-1.51 1.581,-2.265c0.313,-0.755 0.47,-1.517 0.47,-2.286c0,-0.798 -0.157,-1.488 -0.47,-2.072c-0.313,-0.584 -0.762,-1.047 -1.346,-1.389c-0.584,-0.342 -1.318,-0.513 -2.201,-0.513Z" style="fill:#faf9f6;fill-rule:nonzero;"/><path d="M170.433,149.057l-0.641,0c-1.026,0 -2.023,0.199 -2.991,0.598c-0.969,0.399 -1.937,1.104 -2.906,2.115c-0.969,1.011 -1.966,2.443 -2.991,4.294l-1.538,-0.641c1.168,-3.02 2.443,-5.377 3.824,-7.072c1.382,-1.695 2.842,-2.891 4.38,-3.589c1.538,-0.698 3.077,-1.047 4.615,-1.047c0.541,0 1.075,0.036 1.602,0.107c0.527,0.071 1.054,0.164 1.581,0.278c0.527,0.114 1.047,0.256 1.56,0.427l-4.401,14.314l-0.214,0c1.766,-3.475 3.475,-6.331 5.128,-8.567c1.652,-2.236 3.304,-3.896 4.957,-4.978c1.652,-1.082 3.333,-1.624 5.042,-1.624c1.624,0 2.813,0.392 3.568,1.175c0.755,0.783 1.132,1.788 1.132,3.012c0,0.912 -0.228,1.723 -0.684,2.436c-0.456,0.712 -1.054,1.268 -1.795,1.666c-0.741,0.399 -1.553,0.598 -2.436,0.598c-0.228,0 -0.47,-0.107 -0.726,-0.32c-0.256,-0.214 -0.57,-0.591 -0.94,-1.132c-0.37,-0.57 -0.726,-0.997 -1.068,-1.282c-0.342,-0.285 -0.741,-0.427 -1.196,-0.427c-0.712,0 -1.517,0.335 -2.414,1.004c-0.897,0.669 -1.83,1.609 -2.799,2.82c-0.969,1.211 -1.937,2.649 -2.906,4.316c-0.969,1.666 -1.894,3.504 -2.777,5.512c-0.883,2.008 -1.666,4.138 -2.35,6.388l-3.504,11.494l-5.769,0l9.657,-31.876Z" style="fill:#faf9f6;fill-rule:nonzero;"/><path d="M192.653,156.065l-1.538,-0.641c1.168,-3.02 2.443,-5.377 3.824,-7.072c1.382,-1.695 2.842,-2.891 4.38,-3.589c1.538,-0.698 3.077,-1.047 4.615,-1.047c0.541,0 1.075,0.036 1.602,0.107c0.527,0.071 1.054,0.164 1.581,0.278c0.527,0.114 1.047,0.256 1.56,0.427l-5.128,16.665l-0.256,0c1.253,-2.222 2.599,-4.373 4.038,-6.452c1.439,-2.08 2.955,-3.938 4.551,-5.576c1.595,-1.638 3.247,-2.941 4.957,-3.91c1.709,-0.969 3.447,-1.453 5.213,-1.453c2.364,0 3.995,0.506 4.893,1.517c0.897,1.011 1.346,2.329 1.346,3.953c0,0.912 -0.142,1.923 -0.427,3.034c-0.285,1.111 -0.669,2.307 -1.154,3.589l-8.461,22.006l0.085,-1.581c0.94,0 1.98,-0.199 3.119,-0.598c1.139,-0.399 2.322,-0.983 3.547,-1.752c1.225,-0.769 2.407,-1.681 3.547,-2.735l1.282,1.325c-1.994,2.336 -3.839,4.18 -5.534,5.534c-1.695,1.353 -3.255,2.307 -4.679,2.863c-1.424,0.555 -2.777,0.833 -4.059,0.833c-1.852,0 -2.977,-0.264 -3.376,-0.791c-0.399,-0.527 -0.285,-1.588 0.342,-3.183l9.016,-23.288c0.228,-0.598 0.42,-1.182 0.577,-1.752c0.157,-0.57 0.235,-1.097 0.235,-1.581c0,-0.712 -0.228,-1.282 -0.684,-1.709c-0.456,-0.427 -1.282,-0.641 -2.478,-0.641c-1.367,0 -2.891,0.584 -4.572,1.752c-1.681,1.168 -3.369,2.777 -5.063,4.828c-1.695,2.051 -3.262,4.408 -4.7,7.072c-1.439,2.663 -2.614,5.491 -3.525,8.482l-3.034,9.956l-5.769,0l9.657,-31.876l-0.641,0c-1.026,0 -2.023,0.199 -2.991,0.598c-0.969,0.399 -1.937,1.104 -2.906,2.115c-0.969,1.011 -1.966,2.443 -2.991,4.294Z" style="fill:#faf9f6;fill-rule:nonzero;"/><path d="M252.816,179.011l4.444,-13.759l1.111,0c-2.136,3.162 -4.059,5.804 -5.769,7.926c-1.709,2.122 -3.269,3.803 -4.679,5.042c-1.41,1.239 -2.706,2.122 -3.888,2.649c-1.182,0.527 -2.329,0.791 -3.44,0.791c-1.538,0 -2.877,-0.285 -4.017,-0.855c-1.139,-0.57 -2.023,-1.474 -2.649,-2.713c-0.627,-1.239 -0.94,-2.856 -0.94,-4.85c0,-2.136 0.413,-4.494 1.239,-7.072c0.826,-2.578 1.973,-5.142 3.44,-7.691c1.467,-2.55 3.19,-4.893 5.17,-7.029c1.98,-2.136 4.145,-3.846 6.495,-5.128c2.35,-1.282 4.793,-1.923 7.328,-1.923c1.652,0 3.012,0.285 4.081,0.855c1.068,0.57 2.044,1.439 2.927,2.607l-1.709,2.307c-0.228,-0.684 -0.726,-1.303 -1.496,-1.859c-0.769,-0.555 -1.766,-0.833 -2.991,-0.833c-2.051,0 -3.988,0.641 -5.811,1.923c-1.823,1.282 -3.49,2.948 -4.999,4.999c-1.51,2.051 -2.813,4.237 -3.91,6.559c-1.097,2.322 -1.944,4.544 -2.542,6.666c-0.598,2.122 -0.897,3.881 -0.897,5.277c0,1.225 0.342,2.136 1.026,2.735c0.684,0.598 1.553,0.897 2.607,0.897c0.94,0 2.136,-0.413 3.589,-1.239c1.453,-0.826 2.963,-1.973 4.529,-3.44c1.567,-1.467 3.027,-3.205 4.38,-5.213c1.353,-2.008 2.414,-4.18 3.183,-6.516l4.999,-15.596l5.811,0l-10.725,33.372l-0.726,-1.624c0.94,0.142 2.015,0.028 3.226,-0.342c1.211,-0.37 2.478,-0.961 3.803,-1.773c1.325,-0.812 2.614,-1.788 3.867,-2.927l1.196,1.367c-3.077,3.418 -5.733,5.804 -7.969,7.157c-2.236,1.353 -4.309,2.03 -6.217,2.03c-1.225,0 -2.115,-0.256 -2.671,-0.769c-0.555,-0.513 -0.691,-1.182 -0.406,-2.008Z" style="fill:#faf9f6;fill-rule:nonzero;"/><path d="M319.475,177.9l0.085,-1.581c0.94,0 1.98,-0.199 3.119,-0.598c1.139,-0.399 2.322,-0.983 3.547,-1.752c1.225,-0.769 2.407,-1.681 3.547,-2.735l1.282,1.325c-1.994,2.336 -3.839,4.18 -5.534,5.534c-1.695,1.353 -3.255,2.307 -4.679,2.863c-1.424,0.555 -2.777,0.833 -4.059,0.833c-1.852,0 -2.977,-0.264 -3.376,-0.791c-0.399,-0.527 -0.285,-1.588 0.342,-3.183l9.059,-23.459c0.228,-0.598 0.406,-1.154 0.534,-1.666c0.128,-0.513 0.192,-0.997 0.192,-1.453c0,-0.741 -0.228,-1.318 -0.684,-1.731c-0.456,-0.413 -1.253,-0.62 -2.393,-0.62c-1.282,0 -2.678,0.527 -4.188,1.581c-1.51,1.054 -3.034,2.521 -4.572,4.401c-1.538,1.88 -2.998,4.074 -4.38,6.58c-1.382,2.507 -2.585,5.199 -3.611,8.076l-3.589,11.409l-5.854,0l8.717,-26.578c0.142,-0.399 0.264,-0.783 0.363,-1.154c0.1,-0.37 0.178,-0.719 0.235,-1.047c0.057,-0.328 0.085,-0.634 0.085,-0.919c0,-0.741 -0.221,-1.318 -0.662,-1.731c-0.442,-0.413 -1.204,-0.62 -2.286,-0.62c-1.367,0 -2.827,0.57 -4.38,1.709c-1.553,1.139 -3.091,2.72 -4.615,4.743c-1.524,2.023 -2.955,4.373 -4.294,7.05c-1.339,2.678 -2.478,5.541 -3.418,8.589l-3.034,9.956l-5.769,0l9.657,-31.876l-0.641,0c-1.026,0 -2.023,0.199 -2.991,0.598c-0.969,0.399 -1.937,1.104 -2.906,2.115c-0.969,1.011 -1.966,2.443 -2.991,4.294l-1.538,-0.641c1.168,-3.02 2.443,-5.377 3.824,-7.072c1.382,-1.695 2.842,-2.891 4.38,-3.589c1.538,-0.698 3.077,-1.047 4.615,-1.047c0.541,0 1.075,0.036 1.602,0.107c0.527,0.071 1.054,0.164 1.581,0.278c0.527,0.114 1.047,0.256 1.56,0.427l-4.786,15.468l-0.299,0c1.88,-3.219 3.596,-5.89 5.149,-8.012c1.553,-2.122 3.012,-3.789 4.38,-4.999c1.367,-1.211 2.678,-2.065 3.931,-2.564c1.253,-0.499 2.507,-0.748 3.76,-0.748c2.279,0 3.888,0.42 4.828,1.261c0.94,0.84 1.41,1.958 1.41,3.354c0,0.94 -0.157,2.03 -0.47,3.269c-0.313,1.239 -0.726,2.685 -1.239,4.337l-0.641,2.094l-0.342,0c1.595,-2.678 3.112,-4.935 4.551,-6.773c1.439,-1.837 2.827,-3.312 4.166,-4.423c1.339,-1.111 2.642,-1.916 3.91,-2.414c1.268,-0.499 2.514,-0.748 3.739,-0.748c2.279,0 3.874,0.434 4.786,1.303c0.912,0.869 1.367,2.058 1.367,3.568c0,0.94 -0.15,2.023 -0.449,3.247c-0.299,1.225 -0.748,2.635 -1.346,4.23l-8.29,21.92Z" style="fill:#faf9f6;fill-rule:nonzero;"/><path d="M354.385,146.536c-1.681,0 -3.19,0.499 -4.529,1.496c-1.339,0.997 -2.514,2.322 -3.525,3.974c-1.011,1.652 -1.852,3.468 -2.521,5.448c-0.669,1.98 -1.175,3.967 -1.517,5.961c-0.342,1.994 -0.513,3.817 -0.513,5.469c0,2.934 0.584,5.014 1.752,6.239c1.168,1.225 2.692,1.837 4.572,1.837c1.282,0 2.485,-0.228 3.611,-0.684c1.125,-0.456 2.208,-1.246 3.247,-2.372c1.04,-1.125 2.058,-2.713 3.055,-4.764l2.393,0c-1.396,3.247 -2.785,5.79 -4.166,7.627c-1.382,1.837 -2.877,3.134 -4.487,3.888c-1.609,0.755 -3.482,1.132 -5.619,1.132c-2.136,0 -3.995,-0.42 -5.576,-1.261c-1.581,-0.84 -2.806,-2.087 -3.675,-3.739c-0.869,-1.652 -1.303,-3.689 -1.303,-6.11c0,-2.991 0.349,-5.84 1.047,-8.546c0.698,-2.706 1.681,-5.177 2.948,-7.414c1.268,-2.236 2.735,-4.18 4.401,-5.833c1.666,-1.652 3.482,-2.934 5.448,-3.846c1.966,-0.912 3.988,-1.367 6.068,-1.367c1.994,0 3.618,0.349 4.871,1.047c1.253,0.698 2.172,1.609 2.756,2.735c0.584,1.125 0.876,2.329 0.876,3.611c0,1.225 -0.264,2.443 -0.791,3.653c-0.527,1.211 -1.204,2.158 -2.03,2.842c-1.652,0.684 -3.304,1.353 -4.957,2.008c-1.652,0.655 -3.312,1.289 -4.978,1.901c-1.666,0.612 -3.333,1.211 -4.999,1.795c-1.666,0.584 -3.34,1.147 -5.021,1.688l0.128,-3.077c2.735,-0.769 5.085,-1.538 7.05,-2.307c1.966,-0.769 3.596,-1.524 4.893,-2.265c1.296,-0.741 2.315,-1.488 3.055,-2.243c0.741,-0.755 1.268,-1.51 1.581,-2.265c0.313,-0.755 0.47,-1.517 0.47,-2.286c0,-0.798 -0.157,-1.488 -0.47,-2.072c-0.313,-0.584 -0.762,-1.047 -1.346,-1.389c-0.584,-0.342 -1.318,-0.513 -2.201,-0.513Z" style="fill:#faf9f6;fill-rule:nonzero;"/><path d="M368.785,156.065l-1.538,-0.641c1.168,-3.02 2.443,-5.377 3.824,-7.072c1.382,-1.695 2.842,-2.891 4.38,-3.589c1.538,-0.698 3.077,-1.047 4.615,-1.047c0.541,0 1.075,0.036 1.602,0.107c0.527,0.071 1.054,0.164 1.581,0.278c0.527,0.114 1.047,0.256 1.56,0.427l-5.128,16.665l-0.256,0c1.253,-2.222 2.599,-4.373 4.038,-6.452c1.439,-2.08 2.955,-3.938 4.551,-5.576c1.595,-1.638 3.247,-2.941 4.957,-3.91c1.709,-0.969 3.447,-1.453 5.213,-1.453c2.364,0 3.995,0.506 4.893,1.517c0.897,1.011 1.346,2.329 1.346,3.953c0,0.912 -0.142,1.923 -0.427,3.034c-0.285,1.111 -0.669,2.307 -1.154,3.589l-8.461,22.006l0.085,-1.581c0.94,0 1.98,-0.199 3.119,-0.598c1.139,-0.399 2.322,-0.983 3.547,-1.752c1.225,-0.769 2.407,-1.681 3.547,-2.735l1.282,1.325c-1.994,2.336 -3.839,4.18 -5.534,5.534c-1.695,1.353 -3.255,2.307 -4.679,2.863c-1.424,0.555 -2.777,0.833 -4.059,0.833c-1.852,0 -2.977,-0.264 -3.376,-0.791c-0.399,-0.527 -0.285,-1.588 0.342,-3.183l9.016,-23.288c0.228,-0.598 0.42,-1.182 0.577,-1.752c0.157,-0.57 0.235,-1.097 0.235,-1.581c0,-0.712 -0.228,-1.282 -0.684,-1.709c-0.456,-0.427 -1.282,-0.641 -2.478,-0.641c-1.367,0 -2.891,0.584 -4.572,1.752c-1.681,1.168 -3.369,2.777 -5.063,4.828c-1.695,2.051 -3.262,4.408 -4.7,7.072c-1.439,2.663 -2.614,5.491 -3.525,8.482l-3.034,9.956l-5.769,0l9.657,-31.876l-0.641,0c-1.026,0 -2.023,0.199 -2.991,0.598c-0.969,0.399 -1.937,1.104 -2.906,2.115c-0.969,1.011 -1.966,2.443 -2.991,4.294Z" style="fill:#faf9f6;fill-rule:nonzero;"/><path d="M413.438,147.946l0.769,-3.418l20.938,0l-0.684,3.418l-21.023,0Zm5.854,23.971c-0.114,0.427 -0.214,0.819 -0.299,1.175c-0.085,0.356 -0.15,0.677 -0.192,0.961c-0.043,0.285 -0.064,0.541 -0.064,0.769c0,0.456 0.085,0.798 0.256,1.026c0.171,0.228 0.399,0.342 0.684,0.342c0.598,0 1.424,-0.356 2.478,-1.068c1.054,-0.712 2.222,-1.702 3.504,-2.97c1.282,-1.268 2.564,-2.756 3.846,-4.465l1.709,1.111c-1.225,1.909 -2.457,3.646 -3.696,5.213c-1.239,1.567 -2.457,2.927 -3.653,4.081c-1.196,1.154 -2.357,2.044 -3.482,2.671c-1.125,0.627 -2.215,0.94 -3.269,0.94c-1.225,0 -2.208,-0.356 -2.948,-1.068c-0.741,-0.712 -1.111,-1.937 -1.111,-3.675c0,-0.769 0.078,-1.659 0.235,-2.671c0.157,-1.011 0.42,-2.158 0.791,-3.44l9.401,-33.757l5.769,0l-9.956,34.825Z" style="fill:#faf9f6;fill-rule:nonzero;"/><path d="M454.886,146.536c-1.681,0 -3.19,0.499 -4.529,1.496c-1.339,0.997 -2.514,2.322 -3.525,3.974c-1.011,1.652 -1.852,3.468 -2.521,5.448c-0.669,1.98 -1.175,3.967 -1.517,5.961c-0.342,1.994 -0.513,3.817 -0.513,5.469c0,2.934 0.584,5.014 1.752,6.239c1.168,1.225 2.692,1.837 4.572,1.837c1.282,0 2.485,-0.228 3.611,-0.684c1.125,-0.456 2.208,-1.246 3.247,-2.372c1.04,-1.125 2.058,-2.713 3.055,-4.764l2.393,0c-1.396,3.247 -2.785,5.79 -4.166,7.627c-1.382,1.837 -2.877,3.134 -4.487,3.888c-1.609,0.755 -3.482,1.132 -5.619,1.132c-2.136,0 -3.995,-0.42 -5.576,-1.261c-1.581,-0.84 -2.806,-2.087 -3.675,-3.739c-0.869,-1.652 -1.303,-3.689 -1.303,-6.11c0,-2.991 0.349,-5.84 1.047,-8.546c0.698,-2.706 1.681,-5.177 2.948,-7.414c1.268,-2.236 2.735,-4.18 4.401,-5.833c1.666,-1.652 3.482,-2.934 5.448,-3.846c1.966,-0.912 3.988,-1.367 6.068,-1.367c1.994,0 3.618,0.349 4.871,1.047c1.253,0.698 2.172,1.609 2.756,2.735c0.584,1.125 0.876,2.329 0.876,3.611c0,1.225 -0.264,2.443 -0.791,3.653c-0.527,1.211 -1.204,2.158 -2.03,2.842c-1.652,0.684 -3.304,1.353 -4.957,2.008c-1.652,0.655 -3.312,1.289 -4.978,1.901c-1.666,0.612 -3.333,1.211 -4.999,1.795c-1.666,0.584 -3.34,1.147 -5.021,1.688l0.128,-3.077c2.735,-0.769 5.085,-1.538 7.05,-2.307c1.966,-0.769 3.596,-1.524 4.893,-2.265c1.296,-0.741 2.315,-1.488 3.055,-2.243c0.741,-0.755 1.268,-1.51 1.581,-2.265c0.313,-0.755 0.47,-1.517 0.47,-2.286c0,-0.798 -0.157,-1.488 -0.47,-2.072c-0.313,-0.584 -0.762,-1.047 -1.346,-1.389c-0.584,-0.342 -1.318,-0.513 -2.201,-0.513Z" style="fill:#faf9f6;fill-rule:nonzero;"/></g><g><path d="M69.353,359.069l8.909,-2.759l0,-27.186c0,-2.069 -0.441,-3.86 -1.322,-5.374c-0.881,-1.514 -2.184,-2.682 -3.908,-3.506c-1.724,-0.824 -3.832,-1.236 -6.322,-1.236c-3.027,0 -5.834,0.565 -8.42,1.696c-2.586,1.13 -4.378,2.481 -5.374,4.052l-2.242,-1.839c2.031,-2.184 3.956,-4.033 5.776,-5.546c1.82,-1.514 3.602,-2.73 5.345,-3.65c1.743,-0.92 3.535,-1.59 5.374,-2.012c1.839,-0.421 3.774,-0.632 5.805,-0.632c4.636,0 8.075,1.485 10.317,4.454c2.242,2.97 3.362,7.673 3.362,14.11l0,26.669l8.851,2.759l0,2.127l-26.152,0l0,-2.127Zm-6.955,2.127l-26.037,0l0,-2.127l8.736,-2.759l0,-65.12c-0.498,-0.613 -1.15,-1.226 -1.954,-1.839c-0.805,-0.613 -1.782,-1.236 -2.931,-1.868c-1.15,-0.632 -2.471,-1.255 -3.966,-1.868l0,-1.15l16.668,-4.828l1.15,0l-0.575,9.196l0,67.477l8.909,2.759l0,2.127Z" style="fill-rule:nonzero;"/><path d="M131.025,329.986l0.92,4.023c-4.521,1.035 -8.219,2.079 -11.093,3.132c-2.874,1.054 -5.115,2.136 -6.725,3.247c-1.609,1.111 -2.73,2.289 -3.362,3.535c-0.632,1.245 -0.948,2.615 -0.948,4.11c0,2.606 0.776,4.598 2.328,5.977c1.552,1.379 3.439,2.069 5.661,2.069c1.801,0 3.449,-0.46 4.943,-1.379c1.494,-0.92 2.692,-2.127 3.592,-3.621c0.9,-1.494 1.351,-3.104 1.351,-4.828l0,-20.691c0,-2.759 -0.709,-4.962 -2.127,-6.61c-1.418,-1.648 -3.755,-2.471 -7.012,-2.471c-1.15,0 -2.471,0.182 -3.966,0.546c-1.494,0.364 -2.95,0.91 -4.368,1.638l2.931,-2.644c-0.115,1.073 -0.278,2.146 -0.489,3.219c-0.211,1.073 -0.46,2.031 -0.747,2.874c-0.287,0.843 -0.642,1.494 -1.063,1.954c-0.613,0.651 -1.379,1.13 -2.299,1.437c-0.92,0.307 -1.839,0.46 -2.759,0.46c-1.188,0 -2.127,-0.278 -2.816,-0.833c-0.69,-0.556 -1.035,-1.255 -1.035,-2.098c0,-1.188 0.584,-2.443 1.753,-3.765c1.169,-1.322 2.721,-2.567 4.656,-3.736c1.935,-1.169 4.09,-2.117 6.466,-2.845c2.376,-0.728 4.79,-1.092 7.242,-1.092c3.334,0 6.035,0.508 8.104,1.523c2.069,1.015 3.573,2.51 4.512,4.483c0.939,1.973 1.408,4.397 1.408,7.271l0,26.266c0,1.188 0.172,2.175 0.517,2.96c0.345,0.786 0.853,1.379 1.523,1.782c0.671,0.402 1.504,0.603 2.5,0.603c0.881,0 1.83,-0.172 2.845,-0.517c1.015,-0.345 2.002,-0.805 2.96,-1.379l0,2.644c-1.571,1.724 -3.228,2.989 -4.972,3.793c-1.743,0.805 -3.362,1.207 -4.857,1.207c-1.839,0 -3.42,-0.412 -4.742,-1.236c-1.322,-0.824 -2.328,-2.012 -3.017,-3.564c-0.69,-1.552 -1.035,-3.381 -1.035,-5.489l0.345,-0.575c-0.498,2.146 -1.427,4.042 -2.788,5.69c-1.36,1.648 -2.989,2.941 -4.885,3.88c-1.897,0.939 -3.918,1.408 -6.064,1.408c-3.832,0 -6.993,-1.073 -9.484,-3.219c-2.491,-2.146 -3.736,-5.23 -3.736,-9.254c0,-2.146 0.431,-4.1 1.293,-5.863c0.862,-1.763 2.385,-3.42 4.569,-4.972c2.184,-1.552 5.221,-3.065 9.11,-4.541c3.889,-1.475 8.842,-2.979 14.858,-4.512Z" style="fill-rule:nonzero;"/><path d="M157.981,357.92l6.035,0l-9.024,4.196l-1.839,-0.69l1.264,-12.012l0,-58.223c-0.498,-0.613 -1.15,-1.226 -1.954,-1.839c-0.805,-0.613 -1.782,-1.236 -2.931,-1.868c-1.15,-0.632 -2.471,-1.255 -3.966,-1.868l0,-1.15l16.668,-4.828l1.15,0l-0.575,9.196l0,57.648c0,2.069 0.556,3.947 1.667,5.633c1.111,1.686 2.711,3.017 4.799,3.995c2.088,0.977 4.569,1.466 7.443,1.466c3.257,0 6.025,-0.843 8.305,-2.529c2.28,-1.686 4.033,-4.081 5.259,-7.184c1.226,-3.104 1.839,-6.744 1.839,-10.92c0,-4.215 -0.68,-7.788 -2.04,-10.719c-1.36,-2.931 -3.247,-5.154 -5.661,-6.667c-2.414,-1.514 -5.211,-2.27 -8.391,-2.27c-2.261,0 -4.406,0.192 -6.437,0.575c-2.031,0.383 -3.918,0.958 -5.661,1.724c-1.743,0.766 -3.362,1.743 -4.857,2.931l0,-4.081c2.069,-1.264 4.042,-2.357 5.92,-3.276c1.878,-0.92 3.659,-1.676 5.345,-2.27c1.686,-0.594 3.314,-1.044 4.885,-1.351c1.571,-0.307 3.065,-0.46 4.483,-0.46c4.828,0 8.88,0.977 12.156,2.931c3.276,1.954 5.757,4.665 7.443,8.133c1.686,3.468 2.529,7.481 2.529,12.041c0,4.215 -0.68,8.047 -2.04,11.495c-1.36,3.449 -3.286,6.418 -5.776,8.909c-2.491,2.491 -5.412,4.406 -8.765,5.748c-3.353,1.341 -7.022,2.012 -11.007,2.012c-1.609,0 -3.257,-0.153 -4.943,-0.46c-1.686,-0.307 -3.458,-0.776 -5.317,-1.408c-1.858,-0.632 -3.86,-1.485 -6.006,-2.558Z" style="fill-rule:nonzero;"/><path d="M225.113,356.31l8.909,2.759l0,2.127l-26.037,0l0,-2.127l8.736,-2.759l0,-65.12c-0.498,-0.613 -1.15,-1.226 -1.954,-1.839c-0.805,-0.613 -1.782,-1.236 -2.931,-1.868c-1.15,-0.632 -2.471,-1.255 -3.966,-1.868l0,-1.15l16.668,-4.828l1.15,0l-0.575,9.196l0,67.477Z" style="fill-rule:nonzero;"/><path d="M270.289,329.986l0.92,4.023c-4.521,1.035 -8.219,2.079 -11.093,3.132c-2.874,1.054 -5.115,2.136 -6.725,3.247c-1.609,1.111 -2.73,2.289 -3.362,3.535c-0.632,1.245 -0.948,2.615 -0.948,4.11c0,2.606 0.776,4.598 2.328,5.977c1.552,1.379 3.439,2.069 5.661,2.069c1.801,0 3.449,-0.46 4.943,-1.379c1.494,-0.92 2.692,-2.127 3.592,-3.621c0.9,-1.494 1.351,-3.104 1.351,-4.828l0,-20.691c0,-2.759 -0.709,-4.962 -2.127,-6.61c-1.418,-1.648 -3.755,-2.471 -7.012,-2.471c-1.15,0 -2.471,0.182 -3.966,0.546c-1.494,0.364 -2.95,0.91 -4.368,1.638l2.931,-2.644c-0.115,1.073 -0.278,2.146 -0.489,3.219c-0.211,1.073 -0.46,2.031 -0.747,2.874c-0.287,0.843 -0.642,1.494 -1.063,1.954c-0.613,0.651 -1.379,1.13 -2.299,1.437c-0.92,0.307 -1.839,0.46 -2.759,0.46c-1.188,0 -2.127,-0.278 -2.816,-0.833c-0.69,-0.556 -1.035,-1.255 -1.035,-2.098c0,-1.188 0.584,-2.443 1.753,-3.765c1.169,-1.322 2.721,-2.567 4.656,-3.736c1.935,-1.169 4.09,-2.117 6.466,-2.845c2.376,-0.728 4.79,-1.092 7.242,-1.092c3.334,0 6.035,0.508 8.104,1.523c2.069,1.015 3.573,2.51 4.512,4.483c0.939,1.973 1.408,4.397 1.408,7.271l0,26.266c0,1.188 0.172,2.175 0.517,2.96c0.345,0.786 0.853,1.379 1.523,1.782c0.671,0.402 1.504,0.603 2.5,0.603c0.881,0 1.83,-0.172 2.845,-0.517c1.015,-0.345 2.002,-0.805 2.96,-1.379l0,2.644c-1.571,1.724 -3.228,2.989 -4.972,3.793c-1.743,0.805 -3.362,1.207 -4.857,1.207c-1.839,0 -3.42,-0.412 -4.742,-1.236c-1.322,-0.824 -2.328,-2.012 -3.017,-3.564c-0.69,-1.552 -1.035,-3.381 -1.035,-5.489l0.345,-0.575c-0.498,2.146 -1.427,4.042 -2.788,5.69c-1.36,1.648 -2.989,2.941 -4.885,3.88c-1.897,0.939 -3.918,1.408 -6.064,1.408c-3.832,0 -6.993,-1.073 -9.484,-3.219c-2.491,-2.146 -3.736,-5.23 -3.736,-9.254c0,-2.146 0.431,-4.1 1.293,-5.863c0.862,-1.763 2.385,-3.42 4.569,-4.972c2.184,-1.552 5.221,-3.065 9.11,-4.541c3.889,-1.475 8.842,-2.979 14.858,-4.512Z" style="fill-rule:nonzero;"/><path d="M305.349,321.595l0,34.715l8.909,2.759l0,2.127l-26.037,0l0,-2.127l8.736,-2.759l0,-33.853c-0.613,-0.651 -1.533,-1.284 -2.759,-1.897c-1.226,-0.613 -3.142,-1.341 -5.748,-2.184l0,-1.437l13.967,-5.863l1.207,0l1.724,10.518Zm15.863,37.474l8.909,-2.759l0,-27.186c0,-2.069 -0.441,-3.86 -1.322,-5.374c-0.881,-1.514 -2.184,-2.682 -3.908,-3.506c-1.724,-0.824 -3.832,-1.236 -6.322,-1.236c-3.027,0 -5.834,0.565 -8.42,1.696c-2.586,1.13 -4.378,2.481 -5.374,4.052l-2.242,-1.839c2.031,-2.184 3.956,-4.033 5.776,-5.546c1.82,-1.514 3.602,-2.73 5.345,-3.65c1.743,-0.92 3.535,-1.59 5.374,-2.012c1.839,-0.421 3.774,-0.632 5.805,-0.632c4.636,0 8.075,1.485 10.317,4.454c2.242,2.97 3.362,7.673 3.362,14.11l0,26.669l8.851,2.759l0,2.127l-26.152,0l0,-2.127Z" style="fill-rule:nonzero;"/><path d="M391.678,326.94c0,-3.18 -1.13,-5.824 -3.391,-7.932c-2.261,-2.107 -5.575,-3.161 -9.943,-3.161c-3.41,0 -6.313,0.843 -8.708,2.529c-2.395,1.686 -4.205,4.071 -5.431,7.156c-1.226,3.085 -1.839,6.734 -1.839,10.949c0,4.215 0.68,7.788 2.04,10.719c1.36,2.931 3.247,5.154 5.661,6.667c2.414,1.514 5.211,2.27 8.391,2.27c2.95,0 5.776,-0.469 8.478,-1.408c2.701,-0.939 5.336,-2.404 7.903,-4.397l0,4.081c-2.759,1.648 -5.096,2.998 -7.012,4.052c-1.916,1.054 -3.602,1.858 -5.058,2.414c-1.456,0.556 -2.807,0.939 -4.052,1.15c-1.245,0.211 -2.558,0.316 -3.937,0.316c-4.79,0 -8.832,-0.977 -12.127,-2.931c-3.295,-1.954 -5.786,-4.675 -7.472,-8.162c-1.686,-3.487 -2.529,-7.491 -2.529,-12.012c0,-4.406 0.718,-8.344 2.155,-11.811c1.437,-3.468 3.41,-6.418 5.92,-8.851c2.51,-2.433 5.384,-4.292 8.621,-5.575c3.238,-1.284 6.658,-1.925 10.259,-1.925c1.839,0 3.64,0.153 5.403,0.46c1.763,0.307 3.583,0.776 5.46,1.408c1.878,0.632 3.889,1.485 6.035,2.558l-4.828,3.276l0,-29.198c-0.46,-0.575 -1.054,-1.111 -1.782,-1.609c-0.728,-0.498 -1.561,-0.987 -2.5,-1.466c-0.939,-0.479 -1.964,-0.948 -3.075,-1.408l0,-1.035l15.174,-4.426l1.092,0l-0.517,9.311l0,64.201c0.345,0.383 0.805,0.757 1.379,1.121c0.575,0.364 1.207,0.718 1.897,1.063c0.69,0.345 1.379,0.632 2.069,0.862c0.69,0.23 1.341,0.383 1.954,0.46l0,1.724l-13.737,3.736l-1.15,0l-0.805,-8.736l0,-26.439Z" style="fill-rule:nonzero;"/><path d="M438.521,357.92c2.874,0 5.441,-0.699 7.702,-2.098c2.261,-1.399 4.042,-3.564 5.345,-6.495c1.303,-2.931 1.954,-6.677 1.954,-11.237c0,-4.905 -0.642,-9.033 -1.925,-12.386c-1.284,-3.353 -3.075,-5.891 -5.374,-7.616c-2.299,-1.724 -5,-2.586 -8.104,-2.586c-2.874,0 -5.441,0.699 -7.702,2.098c-2.261,1.399 -4.042,3.564 -5.345,6.495c-1.303,2.931 -1.954,6.677 -1.954,11.237c0,4.866 0.642,8.985 1.925,12.357c1.284,3.372 3.085,5.92 5.403,7.644c2.318,1.724 5.01,2.586 8.075,2.586Zm-0.345,4.426c-4.828,0 -9.091,-1.063 -12.788,-3.19c-3.698,-2.127 -6.581,-5.077 -8.65,-8.851c-2.069,-3.774 -3.104,-8.114 -3.104,-13.018c0,-5.058 1.082,-9.56 3.247,-13.507c2.165,-3.947 5.115,-7.05 8.851,-9.311c3.736,-2.261 7.98,-3.391 12.731,-3.391c4.866,0 9.139,1.063 12.817,3.19c3.678,2.127 6.552,5.067 8.621,8.823c2.069,3.755 3.104,8.104 3.104,13.047c0,5.058 -1.082,9.56 -3.247,13.507c-2.165,3.947 -5.115,7.05 -8.851,9.311c-3.736,2.261 -7.98,3.391 -12.731,3.391Z" style="fill-rule:nonzero;"/></g></g></svg>