<?xml version="1.0" encoding="UTF-8" standalone="no"?><!DOCTYPE svg PUBLIC "-//W3C//DTD SVG 1.1//EN" "http://www.w3.org/Graphics/SVG/1.1/DTD/svg11.dtd"><svg width="100%" height="100%" viewBox="0 0 500 500" version="1.1" xmlns="http://www.w3.org/2000/svg" xmlns:xlink="http://www.w3.org/1999/xlink" xml:space="preserve" xmlns:serif="http://www.serif.com/" style="fill-rule:evenodd;clip-rule:evenodd;stroke-linecap:round;stroke-linejoin:round;stroke-miterlimit:1.5;"><rect id="Mesa-de-trabajo1" serif:id="Mesa de trabajo1" x="0" y="0" width="500" height="500" style="fill:none;"/><g id="Mesa-de-trabajo11" serif:id="Mesa de trabajo1"><path d="M483.978,94.654l0,145.794l-40.136,-30.621l-101.192,30.621l-53.316,-27.879l-80.08,27.879l-115.941,-33.82l-78.038,33.82l0,-145.794l468.704,0Zm-41.381,70.016c1.388,-0.454 2.77,-0.922 4.148,-1.405c1.666,-0.584 3.333,-1.182 4.999,-1.795c1.666,-0.612 3.326,-1.246 4.978,-1.901c1.652,-0.655 3.304,-1.325 4.957,-2.008c0.826,-0.684 1.503,-1.631 2.03,-2.842c0.527,-1.211 0.791,-2.428 0.791,-3.653c0,-1.282 -0.292,-2.485 -0.876,-3.611c-0.584,-1.125 -1.503,-2.037 -2.756,-2.735c-1.253,-0.698 -2.877,-1.047 -4.871,-1.047c-2.08,0 -4.102,0.456 -6.068,1.367c-1.966,0.912 -3.782,2.193 -5.448,3.846c-1.666,1.652 -3.134,3.596 -4.401,5.833c-1.268,2.236 -2.25,4.707 -2.948,7.414c-0.698,2.706 -1.047,5.555 -1.047,8.546c0,2.421 0.434,4.458 1.303,6.11c0.869,1.652 2.094,2.899 3.675,3.739c1.581,0.84 3.44,1.261 5.576,1.261c2.136,0 4.009,-0.377 5.619,-1.132c1.609,-0.755 3.105,-2.051 4.487,-3.888c1.382,-1.837 2.77,-4.38 4.166,-7.627l-2.393,0c-0.997,2.051 -2.015,3.639 -3.055,4.764c-1.04,1.125 -2.122,1.916 -3.247,2.372c-1.125,0.456 -2.329,0.684 -3.611,0.684c-1.88,0 -3.404,-0.612 -4.572,-1.837c-1.168,-1.225 -1.752,-3.304 -1.752,-6.239c0,-1.299 0.106,-2.704 0.317,-4.214Zm0.576,-3.173c0.304,-1.351 0.683,-2.698 1.137,-4.043c0.669,-1.98 1.51,-3.796 2.521,-5.448c1.011,-1.652 2.186,-2.977 3.525,-3.974c1.339,-0.997 2.849,-1.496 4.529,-1.496c0.883,0 1.617,0.171 2.201,0.513c0.584,0.342 1.033,0.805 1.346,1.389c0.313,0.584 0.47,1.275 0.47,2.072c0,0.769 -0.157,1.531 -0.47,2.286c-0.313,0.755 -0.84,1.51 -1.581,2.265c-0.741,0.755 -1.759,1.503 -3.055,2.243c-1.296,0.741 -2.927,1.496 -4.893,2.265c-1.642,0.642 -3.552,1.285 -5.73,1.927Zm-48.177,14.802l7.845,-20.405c0.484,-1.282 0.869,-2.478 1.154,-3.589c0.285,-1.111 0.427,-2.122 0.427,-3.034c0,-1.624 -0.449,-2.941 -1.346,-3.953c-0.897,-1.011 -2.528,-1.517 -4.893,-1.517c-1.766,0 -3.504,0.484 -5.213,1.453c-1.709,0.969 -3.361,2.272 -4.957,3.91c-1.595,1.638 -3.112,3.497 -4.551,5.576c-1.229,1.776 -2.39,3.605 -3.484,5.485l4.83,-15.698c-0.513,-0.171 -1.033,-0.313 -1.56,-0.427c-0.527,-0.114 -1.054,-0.207 -1.581,-0.278c-0.527,-0.071 -1.061,-0.107 -1.602,-0.107c-1.538,0 -3.077,0.349 -4.615,1.047c-1.538,0.698 -2.998,1.894 -4.38,3.589c-1.382,1.695 -2.656,4.052 -3.824,7.072l1.538,0.641c1.026,-1.852 2.023,-3.283 2.991,-4.294c0.969,-1.011 1.937,-1.716 2.906,-2.115c0.969,-0.399 1.966,-0.598 2.991,-0.598l0.641,0l-9.657,31.876l5.769,0l3.034,-9.956c0.912,-2.991 2.087,-5.818 3.525,-8.482c1.439,-2.663 3.005,-5.021 4.7,-7.072c1.695,-2.051 3.383,-3.661 5.063,-4.828c1.681,-1.168 3.205,-1.752 4.572,-1.752c1.196,0 2.023,0.214 2.478,0.641c0.456,0.427 0.684,0.997 0.684,1.709c0,0.484 -0.078,1.011 -0.235,1.581c-0.157,0.57 -0.349,1.154 -0.577,1.752l-9.016,23.288c-0.627,1.595 -0.741,2.656 -0.342,3.183c0.399,0.527 1.524,0.791 3.376,0.791c1.282,0 2.635,-0.278 4.059,-0.833c1.424,-0.555 2.984,-1.51 4.679,-2.863c1.695,-1.353 3.539,-3.198 5.534,-5.534l-1.282,-1.325c-1.139,1.054 -2.322,1.966 -3.547,2.735c-1.225,0.769 -2.407,1.353 -3.547,1.752c-0.929,0.325 -1.792,0.518 -2.589,0.578Zm31.149,-28.352l8.316,0l0.684,-3.418l-8.022,0l2.126,-7.435l-5.769,0l-2.071,7.435l-7.202,0l-0.769,3.418l7.019,0l-6.378,22.903c-0.37,1.282 -0.634,2.428 -0.791,3.44c-0.157,1.011 -0.235,1.901 -0.235,2.671c0,1.738 0.37,2.963 1.111,3.675c0.741,0.712 1.723,1.068 2.948,1.068c1.054,0 2.144,-0.313 3.269,-0.94c1.125,-0.627 2.286,-1.517 3.482,-2.671c1.196,-1.154 2.414,-2.514 3.653,-4.081c1.239,-1.567 2.471,-3.304 3.696,-5.213l-1.709,-1.111c-1.282,1.709 -2.564,3.198 -3.846,4.465c-1.282,1.268 -2.45,2.258 -3.504,2.97c-1.054,0.712 -1.88,1.068 -2.478,1.068c-0.285,0 -0.513,-0.114 -0.684,-0.342c-0.171,-0.228 -0.256,-0.57 -0.256,-1.026c0,-0.228 0.021,-0.484 0.064,-0.769c0.043,-0.285 0.107,-0.605 0.192,-0.961c0.085,-0.356 0.185,-0.748 0.299,-1.175l6.853,-23.971Zm-84.048,16.723c1.388,-0.454 2.77,-0.922 4.148,-1.405c1.666,-0.584 3.333,-1.182 4.999,-1.795c1.666,-0.612 3.326,-1.246 4.978,-1.901c1.652,-0.655 3.304,-1.325 4.957,-2.008c0.826,-0.684 1.503,-1.631 2.03,-2.842c0.527,-1.211 0.791,-2.428 0.791,-3.653c0,-1.282 -0.292,-2.485 -0.876,-3.611c-0.584,-1.125 -1.503,-2.037 -2.756,-2.735c-1.253,-0.698 -2.877,-1.047 -4.871,-1.047c-2.08,0 -4.102,0.456 -6.068,1.367c-1.966,0.912 -3.782,2.193 -5.448,3.846c-1.666,1.652 -3.134,3.596 -4.401,5.833c-1.268,2.236 -2.25,4.707 -2.948,7.414c-0.698,2.706 -1.047,5.555 -1.047,8.546c0,2.421 0.434,4.458 1.303,6.11c0.869,1.652 2.094,2.899 3.675,3.739c1.581,0.84 3.44,1.261 5.576,1.261c2.136,0 4.009,-0.377 5.619,-1.132c1.609,-0.755 3.105,-2.051 4.487,-3.888c1.382,-1.837 2.77,-4.38 4.166,-7.627l-2.393,0c-0.997,2.051 -2.015,3.639 -3.055,4.764c-1.04,1.125 -2.122,1.916 -3.247,2.372c-1.125,0.456 -2.329,0.684 -3.611,0.684c-1.88,0 -3.404,-0.612 -4.572,-1.837c-1.168,-1.225 -1.752,-3.304 -1.752,-6.239c0,-1.299 0.106,-2.704 0.317,-4.214Zm0.576,-3.173c0.304,-1.351 0.683,-2.698 1.137,-4.043c0.669,-1.98 1.51,-3.796 2.521,-5.448c1.011,-1.652 2.186,-2.977 3.525,-3.974c1.339,-0.997 2.849,-1.496 4.529,-1.496c0.883,0 1.617,0.171 2.201,0.513c0.584,0.342 1.033,0.805 1.346,1.389c0.313,0.584 0.47,1.275 0.47,2.072c0,0.769 -0.157,1.531 -0.47,2.286c-0.313,0.755 -0.84,1.51 -1.581,2.265c-0.741,0.755 -1.759,1.503 -3.055,2.243c-1.296,0.741 -2.927,1.496 -4.893,2.265c-1.642,0.642 -3.552,1.285 -5.73,1.927Zm-22.592,14.803l7.684,-20.32c0.598,-1.595 1.047,-3.005 1.346,-4.23c0.299,-1.225 0.449,-2.307 0.449,-3.247c0,-1.51 -0.456,-2.699 -1.367,-3.568c-0.912,-0.869 -2.507,-1.303 -4.786,-1.303c-1.225,0 -2.471,0.249 -3.739,0.748c-1.268,0.499 -2.571,1.303 -3.91,2.414c-1.339,1.111 -2.728,2.585 -4.166,4.423c-1.229,1.57 -2.516,3.447 -3.859,5.63l0.291,-0.951c0.513,-1.652 0.926,-3.098 1.239,-4.337c0.313,-1.239 0.47,-2.329 0.47,-3.269c0,-1.396 -0.47,-2.514 -1.41,-3.354c-0.94,-0.84 -2.55,-1.261 -4.828,-1.261c-1.253,0 -2.507,0.249 -3.76,0.748c-1.253,0.499 -2.564,1.353 -3.931,2.564c-1.367,1.211 -2.827,2.877 -4.38,4.999c-1.378,1.883 -2.884,4.198 -4.52,6.945l4.456,-14.401c-0.513,-0.171 -1.033,-0.313 -1.56,-0.427c-0.527,-0.114 -1.054,-0.207 -1.581,-0.278c-0.527,-0.071 -1.061,-0.107 -1.602,-0.107c-1.538,0 -3.077,0.349 -4.615,1.047c-1.538,0.698 -2.998,1.894 -4.38,3.589c-1.382,1.695 -2.656,4.052 -3.824,7.072l1.538,0.641c1.026,-1.852 2.023,-3.283 2.991,-4.294c0.969,-1.011 1.937,-1.716 2.906,-2.115c0.969,-0.399 1.966,-0.598 2.991,-0.598l0.641,0l-9.657,31.876l5.769,0l3.034,-9.956c0.94,-3.048 2.08,-5.911 3.418,-8.589c1.339,-2.678 2.77,-5.028 4.294,-7.05c1.524,-2.023 3.062,-3.604 4.615,-4.743c1.553,-1.139 3.012,-1.709 4.38,-1.709c1.082,0 1.845,0.207 2.286,0.62c0.442,0.413 0.662,0.99 0.662,1.731c0,0.285 -0.028,0.591 -0.085,0.919c-0.057,0.328 -0.135,0.677 -0.235,1.047c-0.1,0.37 -0.221,0.755 -0.363,1.154l-8.717,26.578l5.854,0l3.589,-11.409c1.026,-2.877 2.229,-5.569 3.611,-8.076c1.382,-2.507 2.842,-4.7 4.38,-6.58c1.538,-1.88 3.062,-3.347 4.572,-4.401c1.51,-1.054 2.906,-1.581 4.188,-1.581c1.139,0 1.937,0.207 2.393,0.62c0.456,0.413 0.684,0.99 0.684,1.731c0,0.456 -0.064,0.94 -0.192,1.453c-0.128,0.513 -0.306,1.068 -0.534,1.666l-9.059,23.459c-0.627,1.595 -0.741,2.656 -0.342,3.183c0.399,0.527 1.524,0.791 3.376,0.791c1.282,0 2.635,-0.278 4.059,-0.833c1.424,-0.555 2.984,-1.51 4.679,-2.863c1.695,-1.353 3.539,-3.198 5.534,-5.534l-1.282,-1.325c-1.139,1.054 -2.322,1.966 -3.547,2.735c-1.225,0.769 -2.407,1.353 -3.547,1.752c-0.933,0.327 -1.8,0.52 -2.599,0.579Zm-269.419,-50.914c-0,1.367 0.449,2.514 1.346,3.44c0.897,0.926 2.072,1.389 3.525,1.389c0.969,0 1.816,-0.214 2.542,-0.641c0.726,-0.427 1.296,-1.004 1.709,-1.731c0.413,-0.726 0.62,-1.545 0.62,-2.457c0,-1.367 -0.449,-2.514 -1.346,-3.44c-0.897,-0.926 -2.072,-1.389 -3.525,-1.389c-0.969,0 -1.816,0.214 -2.542,0.641c-0.726,0.427 -1.296,1.004 -1.709,1.731c-0.413,0.726 -0.62,1.545 -0.62,2.457Zm205.624,42.884l-3.469,10.742c-0.285,0.826 -0.15,1.496 0.406,2.008c0.555,0.513 1.446,0.769 2.671,0.769c1.909,0 3.981,-0.677 6.217,-2.03c2.236,-1.353 4.893,-3.739 7.969,-7.157l-1.196,-1.367c-1.253,1.139 -2.542,2.115 -3.867,2.927c-1.325,0.812 -2.592,1.403 -3.803,1.773c-0.711,0.217 -1.375,0.346 -1.992,0.387l10.218,-31.794l-5.811,0l-0.762,2.378c-0.661,-0.699 -1.369,-1.25 -2.122,-1.652c-1.068,-0.57 -2.428,-0.855 -4.081,-0.855c-2.535,0 -4.978,0.641 -7.328,1.923c-2.35,1.282 -4.515,2.991 -6.495,5.128c-1.98,2.136 -3.703,4.48 -5.17,7.029c-1.467,2.55 -2.614,5.113 -3.44,7.691c-0.826,2.578 -1.239,4.935 -1.239,7.072c0,1.994 0.313,3.611 0.94,4.85c0.627,1.239 1.51,2.144 2.649,2.713c1.139,0.57 2.478,0.855 4.017,0.855c1.111,0 2.258,-0.264 3.44,-0.791c1.182,-0.527 2.478,-1.41 3.888,-2.649c1.41,-1.239 2.97,-2.92 4.679,-5.042c1.134,-1.408 2.361,-3.044 3.683,-4.909Zm5.598,-18.304l-3.256,10.159c-0.769,2.336 -1.83,4.508 -3.183,6.516c-1.353,2.008 -2.813,3.746 -4.38,5.213c-1.567,1.467 -3.077,2.614 -4.529,3.44c-1.453,0.826 -2.649,1.239 -3.589,1.239c-1.054,0 -1.923,-0.299 -2.607,-0.897c-0.684,-0.598 -1.026,-1.51 -1.026,-2.735c0,-1.396 0.299,-3.155 0.897,-5.277c0.598,-2.122 1.446,-4.344 2.542,-6.666c1.097,-2.322 2.4,-4.508 3.91,-6.559c1.51,-2.051 3.176,-3.717 4.999,-4.999c1.823,-1.282 3.76,-1.923 5.811,-1.923c1.225,0 2.222,0.278 2.991,0.833c0.692,0.5 1.165,1.052 1.419,1.656Zm-144.12,-2.019l8.316,0l0.684,-3.418l-8.022,0l2.126,-7.435l-5.769,0l-2.071,7.435l-7.202,0l-0.769,3.418l7.019,0l-6.378,22.903c-0.37,1.282 -0.634,2.428 -0.791,3.44c-0.157,1.011 -0.235,1.901 -0.235,2.671c0,1.738 0.37,2.963 1.111,3.675c0.741,0.712 1.723,1.068 2.948,1.068c1.054,0 2.144,-0.313 3.269,-0.94c1.125,-0.627 2.286,-1.517 3.482,-2.671c1.196,-1.154 2.414,-2.514 3.653,-4.081c1.239,-1.567 2.471,-3.304 3.696,-5.213l-1.709,-1.111c-1.282,1.709 -2.564,3.198 -3.846,4.465c-1.282,1.268 -2.45,2.258 -3.504,2.97c-1.054,0.712 -1.88,1.068 -2.478,1.068c-0.285,0 -0.513,-0.114 -0.684,-0.342c-0.171,-0.228 -0.256,-0.57 -0.256,-1.026c0,-0.228 0.021,-0.484 0.064,-0.769c0.043,-0.285 0.107,-0.605 0.192,-0.961c0.085,-0.356 0.185,-0.748 0.299,-1.175l6.853,-23.971Zm-74.36,28.343l10.548,-30.265c0.256,-0.741 0.121,-1.318 -0.406,-1.731c-0.527,-0.413 -1.332,-0.62 -2.414,-0.62c-1.282,0 -2.635,0.292 -4.059,0.876c-1.424,0.584 -2.955,1.631 -4.593,3.141c-1.638,1.51 -3.44,3.661 -5.405,6.452l1.282,1.239c1.139,-1.282 2.336,-2.372 3.589,-3.269c1.253,-0.897 2.471,-1.588 3.653,-2.072c0.526,-0.215 1.025,-0.38 1.497,-0.494l-10.705,29.892c-0.285,0.769 -0.142,1.353 0.427,1.752c0.57,0.399 1.638,0.598 3.205,0.598c1.282,0 2.628,-0.278 4.038,-0.833c1.41,-0.555 2.955,-1.503 4.636,-2.842c1.681,-1.339 3.518,-3.176 5.512,-5.512l-1.196,-1.367c-1.253,1.139 -2.542,2.108 -3.867,2.906c-1.325,0.798 -2.592,1.382 -3.803,1.752c-0.69,0.211 -1.336,0.343 -1.938,0.397Zm90.813,-11.619c1.388,-0.454 2.77,-0.922 4.148,-1.405c1.666,-0.584 3.333,-1.182 4.999,-1.795c1.666,-0.612 3.326,-1.246 4.978,-1.901c1.652,-0.655 3.304,-1.325 4.957,-2.008c0.826,-0.684 1.503,-1.631 2.03,-2.842c0.527,-1.211 0.791,-2.428 0.791,-3.653c0,-1.282 -0.292,-2.485 -0.876,-3.611c-0.584,-1.125 -1.503,-2.037 -2.756,-2.735c-1.253,-0.698 -2.877,-1.047 -4.871,-1.047c-2.08,0 -4.102,0.456 -6.068,1.367c-1.966,0.912 -3.782,2.193 -5.448,3.846c-1.666,1.652 -3.134,3.596 -4.401,5.833c-1.268,2.236 -2.25,4.707 -2.948,7.414c-0.698,2.706 -1.047,5.555 -1.047,8.546c0,2.421 0.434,4.458 1.303,6.11c0.869,1.652 2.094,2.899 3.675,3.739c1.581,0.84 3.44,1.261 5.576,1.261c2.136,0 4.009,-0.377 5.619,-1.132c1.609,-0.755 3.105,-2.051 4.487,-3.888c1.382,-1.837 2.77,-4.38 4.166,-7.627l-2.393,0c-0.997,2.051 -2.015,3.639 -3.055,4.764c-1.04,1.125 -2.122,1.916 -3.247,2.372c-1.125,0.456 -2.329,0.684 -3.611,0.684c-1.88,0 -3.404,-0.612 -4.572,-1.837c-1.168,-1.225 -1.752,-3.304 -1.752,-6.239c0,-1.299 0.106,-2.704 0.317,-4.214Zm0.576,-3.173c0.304,-1.351 0.683,-2.698 1.137,-4.043c0.669,-1.98 1.51,-3.796 2.521,-5.448c1.011,-1.652 2.186,-2.977 3.525,-3.974c1.339,-0.997 2.849,-1.496 4.529,-1.496c0.883,0 1.617,0.171 2.201,0.513c0.584,0.342 1.033,0.805 1.346,1.389c0.313,0.584 0.47,1.275 0.47,2.072c0,0.769 -0.157,1.531 -0.47,2.286c-0.313,0.755 -0.84,1.51 -1.581,2.265c-0.741,0.755 -1.759,1.503 -3.055,2.243c-1.296,0.741 -2.927,1.496 -4.893,2.265c-1.642,0.642 -3.552,1.285 -5.73,1.927Zm84.072,14.802l7.845,-20.405c0.484,-1.282 0.869,-2.478 1.154,-3.589c0.285,-1.111 0.427,-2.122 0.427,-3.034c0,-1.624 -0.449,-2.941 -1.346,-3.953c-0.897,-1.011 -2.528,-1.517 -4.893,-1.517c-1.766,0 -3.504,0.484 -5.213,1.453c-1.709,0.969 -3.361,2.272 -4.957,3.91c-1.595,1.638 -3.112,3.497 -4.551,5.576c-1.229,1.776 -2.39,3.605 -3.484,5.485l4.83,-15.698c-0.513,-0.171 -1.033,-0.313 -1.56,-0.427c-0.527,-0.114 -1.054,-0.207 -1.581,-0.278c-0.527,-0.071 -1.061,-0.107 -1.602,-0.107c-1.538,0 -3.077,0.349 -4.615,1.047c-1.538,0.698 -2.998,1.894 -4.38,3.589c-1.382,1.695 -2.656,4.052 -3.824,7.072l1.538,0.641c1.026,-1.852 2.023,-3.283 2.991,-4.294c0.969,-1.011 1.937,-1.716 2.906,-2.115c0.969,-0.399 1.966,-0.598 2.991,-0.598l0.641,0l-9.657,31.876l5.769,0l3.034,-9.956c0.912,-2.991 2.087,-5.818 3.525,-8.482c1.439,-2.663 3.005,-5.021 4.7,-7.072c1.695,-2.051 3.383,-3.661 5.063,-4.828c1.681,-1.168 3.205,-1.752 4.572,-1.752c1.196,0 2.023,0.214 2.478,0.641c0.456,0.427 0.684,0.997 0.684,1.709c0,0.484 -0.078,1.011 -0.235,1.581c-0.157,0.57 -0.349,1.154 -0.577,1.752l-9.016,23.288c-0.627,1.595 -0.741,2.656 -0.342,3.183c0.399,0.527 1.524,0.791 3.376,0.791c1.282,0 2.635,-0.278 4.059,-0.833c1.424,-0.555 2.984,-1.51 4.679,-2.863c1.695,-1.353 3.539,-3.198 5.534,-5.534l-1.282,-1.325c-1.139,1.054 -2.322,1.966 -3.547,2.735c-1.225,0.769 -2.407,1.353 -3.547,1.752c-0.929,0.325 -1.792,0.518 -2.589,0.578Zm-132.249,-0l7.845,-20.405c0.484,-1.282 0.869,-2.478 1.154,-3.589c0.285,-1.111 0.427,-2.122 0.427,-3.034c0,-1.624 -0.449,-2.941 -1.346,-3.953c-0.897,-1.011 -2.528,-1.517 -4.893,-1.517c-1.766,0 -3.504,0.484 -5.213,1.453c-1.709,0.969 -3.361,2.272 -4.957,3.91c-1.595,1.638 -3.112,3.497 -4.551,5.576c-1.229,1.776 -2.39,3.605 -3.484,5.485l4.83,-15.698c-0.513,-0.171 -1.033,-0.313 -1.56,-0.427c-0.527,-0.114 -1.054,-0.207 -1.581,-0.278c-0.527,-0.071 -1.061,-0.107 -1.602,-0.107c-1.538,0 -3.077,0.349 -4.615,1.047c-1.538,0.698 -2.998,1.894 -4.38,3.589c-1.382,1.695 -2.656,4.052 -3.824,7.072l1.538,0.641c1.026,-1.852 2.023,-3.283 2.991,-4.294c0.969,-1.011 1.937,-1.716 2.906,-2.115c0.969,-0.399 1.966,-0.598 2.991,-0.598l0.641,0l-9.657,31.876l5.769,0l3.034,-9.956c0.912,-2.991 2.087,-5.818 3.525,-8.482c1.439,-2.663 3.005,-5.021 4.7,-7.072c1.695,-2.051 3.383,-3.661 5.063,-4.828c1.681,-1.168 3.205,-1.752 4.572,-1.752c1.196,0 2.023,0.214 2.478,0.641c0.456,0.427 0.684,0.997 0.684,1.709c0,0.484 -0.078,1.011 -0.235,1.581c-0.157,0.57 -0.349,1.154 -0.577,1.752l-9.016,23.288c-0.627,1.595 -0.741,2.656 -0.342,3.183c0.399,0.527 1.524,0.791 3.376,0.791c1.282,0 2.635,-0.278 4.059,-0.833c1.424,-0.555 2.984,-1.51 4.679,-2.863c1.695,-1.353 3.539,-3.198 5.534,-5.534l-1.282,-1.325c-1.139,1.054 -2.322,1.966 -3.547,2.735c-1.225,0.769 -2.407,1.353 -3.547,1.752c-0.929,0.325 -1.792,0.518 -2.589,0.578Zm86.228,-18.482l4.086,-13.289c-0.513,-0.171 -1.033,-0.313 -1.56,-0.427c-0.527,-0.114 -1.054,-0.207 -1.581,-0.278c-0.527,-0.071 -1.061,-0.107 -1.602,-0.107c-1.538,0 -3.077,0.349 -4.615,1.047c-1.538,0.698 -2.998,1.894 -4.38,3.589c-1.382,1.695 -2.656,4.052 -3.824,7.072l1.538,0.641c1.026,-1.852 2.023,-3.283 2.991,-4.294c0.969,-1.011 1.937,-1.716 2.906,-2.115c0.969,-0.399 1.966,-0.598 2.991,-0.598l0.641,0l-9.657,31.876l5.769,0l3.504,-11.494c0.684,-2.25 1.467,-4.38 2.35,-6.388c0.883,-2.008 1.809,-3.846 2.777,-5.512c0.969,-1.666 1.937,-3.105 2.906,-4.316c0.969,-1.211 1.901,-2.151 2.799,-2.82c0.897,-0.669 1.702,-1.004 2.414,-1.004c0.456,0 0.855,0.142 1.196,0.427c0.342,0.285 0.698,0.712 1.068,1.282c0.37,0.541 0.684,0.919 0.94,1.132c0.256,0.214 0.499,0.32 0.726,0.32c0.883,0 1.695,-0.199 2.436,-0.598c0.741,-0.399 1.339,-0.954 1.795,-1.666c0.456,-0.712 0.684,-1.524 0.684,-2.436c0,-1.225 -0.377,-2.229 -1.132,-3.012c-0.755,-0.783 -1.944,-1.175 -3.568,-1.175c-1.709,0 -3.39,0.541 -5.042,1.624c-1.652,1.082 -3.304,2.742 -4.957,4.978c-1.487,2.012 -3.02,4.526 -4.599,7.542Z" style="fill:#faf9f6;"/><path d="M484.725,405.346l0,-145.794l-40.706,-34.872l-100.623,34.872l-54.182,-31.441l-79.215,31.441l-113.663,-35.659l-80.316,35.659l-0,145.794l468.704,0Z" style="fill:none;stroke:#fff;stroke-width:2.08px;"/><g><path d="M69.353,359.069l8.909,-2.759l0,-27.186c0,-2.069 -0.441,-3.86 -1.322,-5.374c-0.881,-1.514 -2.184,-2.682 -3.908,-3.506c-1.724,-0.824 -3.832,-1.236 -6.322,-1.236c-3.027,0 -5.834,0.565 -8.42,1.696c-2.586,1.13 -4.378,2.481 -5.374,4.052l-2.242,-1.839c2.031,-2.184 3.956,-4.033 5.776,-5.546c1.82,-1.514 3.602,-2.73 5.345,-3.65c1.743,-0.92 3.535,-1.59 5.374,-2.012c1.839,-0.421 3.774,-0.632 5.805,-0.632c4.636,0 8.075,1.485 10.317,4.454c2.242,2.97 3.362,7.673 3.362,14.11l0,26.669l8.851,2.759l0,2.127l-26.152,0l0,-2.127Zm-6.955,2.127l-26.037,0l0,-2.127l8.736,-2.759l0,-65.12c-0.498,-0.613 -1.15,-1.226 -1.954,-1.839c-0.805,-0.613 -1.782,-1.236 -2.931,-1.868c-1.15,-0.632 -2.471,-1.255 -3.966,-1.868l0,-1.15l16.668,-4.828l1.15,0l-0.575,9.196l0,67.477l8.909,2.759l0,2.127Z" style="fill:#faf9f6;fill-rule:nonzero;"/><path d="M131.025,329.986l0.92,4.023c-4.521,1.035 -8.219,2.079 -11.093,3.132c-2.874,1.054 -5.115,2.136 -6.725,3.247c-1.609,1.111 -2.73,2.289 -3.362,3.535c-0.632,1.245 -0.948,2.615 -0.948,4.11c0,2.606 0.776,4.598 2.328,5.977c1.552,1.379 3.439,2.069 5.661,2.069c1.801,0 3.449,-0.46 4.943,-1.379c1.494,-0.92 2.692,-2.127 3.592,-3.621c0.9,-1.494 1.351,-3.104 1.351,-4.828l0,-20.691c0,-2.759 -0.709,-4.962 -2.127,-6.61c-1.418,-1.648 -3.755,-2.471 -7.012,-2.471c-1.15,0 -2.471,0.182 -3.966,0.546c-1.494,0.364 -2.95,0.91 -4.368,1.638l2.931,-2.644c-0.115,1.073 -0.278,2.146 -0.489,3.219c-0.211,1.073 -0.46,2.031 -0.747,2.874c-0.287,0.843 -0.642,1.494 -1.063,1.954c-0.613,0.651 -1.379,1.13 -2.299,1.437c-0.92,0.307 -1.839,0.46 -2.759,0.46c-1.188,0 -2.127,-0.278 -2.816,-0.833c-0.69,-0.556 -1.035,-1.255 -1.035,-2.098c0,-1.188 0.584,-2.443 1.753,-3.765c1.169,-1.322 2.721,-2.567 4.656,-3.736c1.935,-1.169 4.09,-2.117 6.466,-2.845c2.376,-0.728 4.79,-1.092 7.242,-1.092c3.334,0 6.035,0.508 8.104,1.523c2.069,1.015 3.573,2.51 4.512,4.483c0.939,1.973 1.408,4.397 1.408,7.271l0,26.266c0,1.188 0.172,2.175 0.517,2.96c0.345,0.786 0.853,1.379 1.523,1.782c0.671,0.402 1.504,0.603 2.5,0.603c0.881,0 1.83,-0.172 2.845,-0.517c1.015,-0.345 2.002,-0.805 2.96,-1.379l0,2.644c-1.571,1.724 -3.228,2.989 -4.972,3.793c-1.743,0.805 -3.362,1.207 -4.857,1.207c-1.839,0 -3.42,-0.412 -4.742,-1.236c-1.322,-0.824 -2.328,-2.012 -3.017,-3.564c-0.69,-1.552 -1.035,-3.381 -1.035,-5.489l0.345,-0.575c-0.498,2.146 -1.427,4.042 -2.788,5.69c-1.36,1.648 -2.989,2.941 -4.885,3.88c-1.897,0.939 -3.918,1.408 -6.064,1.408c-3.832,0 -6.993,-1.073 -9.484,-3.219c-2.491,-2.146 -3.736,-5.23 -3.736,-9.254c0,-2.146 0.431,-4.1 1.293,-5.863c0.862,-1.763 2.385,-3.42 4.569,-4.972c2.184,-1.552 5.221,-3.065 9.11,-4.541c3.889,-1.475 8.842,-2.979 14.858,-4.512Z" style="fill:#faf9f6;fill-rule:nonzero;"/><path d="M157.981,357.92l6.035,0l-9.024,4.196l-1.839,-0.69l1.264,-12.012l0,-58.223c-0.498,-0.613 -1.15,-1.226 -1.954,-1.839c-0.805,-0.613 -1.782,-1.236 -2.931,-1.868c-1.15,-0.632 -2.471,-1.255 -3.966,-1.868l0,-1.15l16.668,-4.828l1.15,0l-0.575,9.196l0,57.648c0,2.069 0.556,3.947 1.667,5.633c1.111,1.686 2.711,3.017 4.799,3.995c2.088,0.977 4.569,1.466 7.443,1.466c3.257,0 6.025,-0.843 8.305,-2.529c2.28,-1.686 4.033,-4.081 5.259,-7.184c1.226,-3.104 1.839,-6.744 1.839,-10.92c0,-4.215 -0.68,-7.788 -2.04,-10.719c-1.36,-2.931 -3.247,-5.154 -5.661,-6.667c-2.414,-1.514 -5.211,-2.27 -8.391,-2.27c-2.261,0 -4.406,0.192 -6.437,0.575c-2.031,0.383 -3.918,0.958 -5.661,1.724c-1.743,0.766 -3.362,1.743 -4.857,2.931l0,-4.081c2.069,-1.264 4.042,-2.357 5.92,-3.276c1.878,-0.92 3.659,-1.676 5.345,-2.27c1.686,-0.594 3.314,-1.044 4.885,-1.351c1.571,-0.307 3.065,-0.46 4.483,-0.46c4.828,0 8.88,0.977 12.156,2.931c3.276,1.954 5.757,4.665 7.443,8.133c1.686,3.468 2.529,7.481 2.529,12.041c0,4.215 -0.68,8.047 -2.04,11.495c-1.36,3.449 -3.286,6.418 -5.776,8.909c-2.491,2.491 -5.412,4.406 -8.765,5.748c-3.353,1.341 -7.022,2.012 -11.007,2.012c-1.609,0 -3.257,-0.153 -4.943,-0.46c-1.686,-0.307 -3.458,-0.776 -5.317,-1.408c-1.858,-0.632 -3.86,-1.485 -6.006,-2.558Z" style="fill:#faf9f6;fill-rule:nonzero;"/><path d="M225.113,356.31l8.909,2.759l0,2.127l-26.037,0l0,-2.127l8.736,-2.759l0,-65.12c-0.498,-0.613 -1.15,-1.226 -1.954,-1.839c-0.805,-0.613 -1.782,-1.236 -2.931,-1.868c-1.15,-0.632 -2.471,-1.255 -3.966,-1.868l0,-1.15l16.668,-4.828l1.15,0l-0.575,9.196l0,67.477Z" style="fill:#faf9f6;fill-rule:nonzero;"/><path d="M270.289,329.986l0.92,4.023c-4.521,1.035 -8.219,2.079 -11.093,3.132c-2.874,1.054 -5.115,2.136 -6.725,3.247c-1.609,1.111 -2.73,2.289 -3.362,3.535c-0.632,1.245 -0.948,2.615 -0.948,4.11c0,2.606 0.776,4.598 2.328,5.977c1.552,1.379 3.439,2.069 5.661,2.069c1.801,0 3.449,-0.46 4.943,-1.379c1.494,-0.92 2.692,-2.127 3.592,-3.621c0.9,-1.494 1.351,-3.104 1.351,-4.828l0,-20.691c0,-2.759 -0.709,-4.962 -2.127,-6.61c-1.418,-1.648 -3.755,-2.471 -7.012,-2.471c-1.15,0 -2.471,0.182 -3.966,0.546c-1.494,0.364 -2.95,0.91 -4.368,1.638l2.931,-2.644c-0.115,1.073 -0.278,2.146 -0.489,3.219c-0.211,1.073 -0.46,2.031 -0.747,2.874c-0.287,0.843 -0.642,1.494 -1.063,1.954c-0.613,0.651 -1.379,1.13 -2.299,1.437c-0.92,0.307 -1.839,0.46 -2.759,0.46c-1.188,0 -2.127,-0.278 -2.816,-0.833c-0.69,-0.556 -1.035,-1.255 -1.035,-2.098c0,-1.188 0.584,-2.443 1.753,-3.765c1.169,-1.322 2.721,-2.567 4.656,-3.736c1.935,-1.169 4.09,-2.117 6.466,-2.845c2.376,-0.728 4.79,-1.092 7.242,-1.092c3.334,0 6.035,0.508 8.104,1.523c2.069,1.015 3.573,2.51 4.512,4.483c0.939,1.973 1.408,4.397 1.408,7.271l0,26.266c0,1.188 0.172,2.175 0.517,2.96c0.345,0.786 0.853,1.379 1.523,1.782c0.671,0.402 1.504,0.603 2.5,0.603c0.881,0 1.83,-0.172 2.845,-0.517c1.015,-0.345 2.002,-0.805 2.96,-1.379l0,2.644c-1.571,1.724 -3.228,2.989 -4.972,3.793c-1.743,0.805 -3.362,1.207 -4.857,1.207c-1.839,0 -3.42,-0.412 -4.742,-1.236c-1.322,-0.824 -2.328,-2.012 -3.017,-3.564c-0.69,-1.552 -1.035,-3.381 -1.035,-5.489l0.345,-0.575c-0.498,2.146 -1.427,4.042 -2.788,5.69c-1.36,1.648 -2.989,2.941 -4.885,3.88c-1.897,0.939 -3.918,1.408 -6.064,1.408c-3.832,0 -6.993,-1.073 -9.484,-3.219c-2.491,-2.146 -3.736,-5.23 -3.736,-9.254c0,-2.146 0.431,-4.1 1.293,-5.863c0.862,-1.763 2.385,-3.42 4.569,-4.972c2.184,-1.552 5.221,-3.065 9.11,-4.541c3.889,-1.475 8.842,-2.979 14.858,-4.512Z" style="fill:#faf9f6;fill-rule:nonzero;"/><path d="M305.349,321.595l0,34.715l8.909,2.759l0,2.127l-26.037,0l0,-2.127l8.736,-2.759l0,-33.853c-0.613,-0.651 -1.533,-1.284 -2.759,-1.897c-1.226,-0.613 -3.142,-1.341 -5.748,-2.184l0,-1.437l13.967,-5.863l1.207,0l1.724,10.518Zm15.863,37.474l8.909,-2.759l0,-27.186c0,-2.069 -0.441,-3.86 -1.322,-5.374c-0.881,-1.514 -2.184,-2.682 -3.908,-3.506c-1.724,-0.824 -3.832,-1.236 -6.322,-1.236c-3.027,0 -5.834,0.565 -8.42,1.696c-2.586,1.13 -4.378,2.481 -5.374,4.052l-2.242,-1.839c2.031,-2.184 3.956,-4.033 5.776,-5.546c1.82,-1.514 3.602,-2.73 5.345,-3.65c1.743,-0.92 3.535,-1.59 5.374,-2.012c1.839,-0.421 3.774,-0.632 5.805,-0.632c4.636,0 8.075,1.485 10.317,4.454c2.242,2.97 3.362,7.673 3.362,14.11l0,26.669l8.851,2.759l0,2.127l-26.152,0l0,-2.127Z" style="fill:#faf9f6;fill-rule:nonzero;"/><path d="M391.678,326.94c0,-3.18 -1.13,-5.824 -3.391,-7.932c-2.261,-2.107 -5.575,-3.161 -9.943,-3.161c-3.41,0 -6.313,0.843 -8.708,2.529c-2.395,1.686 -4.205,4.071 -5.431,7.156c-1.226,3.085 -1.839,6.734 -1.839,10.949c0,4.215 0.68,7.788 2.04,10.719c1.36,2.931 3.247,5.154 5.661,6.667c2.414,1.514 5.211,2.27 8.391,2.27c2.95,0 5.776,-0.469 8.478,-1.408c2.701,-0.939 5.336,-2.404 7.903,-4.397l0,4.081c-2.759,1.648 -5.096,2.998 -7.012,4.052c-1.916,1.054 -3.602,1.858 -5.058,2.414c-1.456,0.556 -2.807,0.939 -4.052,1.15c-1.245,0.211 -2.558,0.316 -3.937,0.316c-4.79,0 -8.832,-0.977 -12.127,-2.931c-3.295,-1.954 -5.786,-4.675 -7.472,-8.162c-1.686,-3.487 -2.529,-7.491 -2.529,-12.012c0,-4.406 0.718,-8.344 2.155,-11.811c1.437,-3.468 3.41,-6.418 5.92,-8.851c2.51,-2.433 5.384,-4.292 8.621,-5.575c3.238,-1.284 6.658,-1.925 10.259,-1.925c1.839,0 3.64,0.153 5.403,0.46c1.763,0.307 3.583,0.776 5.46,1.408c1.878,0.632 3.889,1.485 6.035,2.558l-4.828,3.276l0,-29.198c-0.46,-0.575 -1.054,-1.111 -1.782,-1.609c-0.728,-0.498 -1.561,-0.987 -2.5,-1.466c-0.939,-0.479 -1.964,-0.948 -3.075,-1.408l0,-1.035l15.174,-4.426l1.092,0l-0.517,9.311l0,64.201c0.345,0.383 0.805,0.757 1.379,1.121c0.575,0.364 1.207,0.718 1.897,1.063c0.69,0.345 1.379,0.632 2.069,0.862c0.69,0.23 1.341,0.383 1.954,0.46l0,1.724l-13.737,3.736l-1.15,0l-0.805,-8.736l0,-26.439Z" style="fill:#faf9f6;fill-rule:nonzero;"/><path d="M438.521,357.92c2.874,0 5.441,-0.699 7.702,-2.098c2.261,-1.399 4.042,-3.564 5.345,-6.495c1.303,-2.931 1.954,-6.677 1.954,-11.237c0,-4.905 -0.642,-9.033 -1.925,-12.386c-1.284,-3.353 -3.075,-5.891 -5.374,-7.616c-2.299,-1.724 -5,-2.586 -8.104,-2.586c-2.874,0 -5.441,0.699 -7.702,2.098c-2.261,1.399 -4.042,3.564 -5.345,6.495c-1.303,2.931 -1.954,6.677 -1.954,11.237c0,4.866 0.642,8.985 1.925,12.357c1.284,3.372 3.085,5.92 5.403,7.644c2.318,1.724 5.01,2.586 8.075,2.586Zm-0.345,4.426c-4.828,0 -9.091,-1.063 -12.788,-3.19c-3.698,-2.127 -6.581,-5.077 -8.65,-8.851c-2.069,-3.774 -3.104,-8.114 -3.104,-13.018c0,-5.058 1.082,-9.56 3.247,-13.507c2.165,-3.947 5.115,-7.05 8.851,-9.311c3.736,-2.261 7.98,-3.391 12.731,-3.391c4.866,0 9.139,1.063 12.817,3.19c3.678,2.127 6.552,5.067 8.621,8.823c2.069,3.755 3.104,8.104 3.104,13.047c0,5.058 -1.082,9.56 -3.247,13.507c-2.165,3.947 -5.115,7.05 -8.851,9.311c-3.736,2.261 -7.98,3.391 -12.731,3.391Z" style="fill:#faf9f6;fill-rule:nonzero;"/></g></g></svg>